CoelacanthItalicPearlGross.sfdir
StartChar: comma
Encoding: 44 44 46
Width: 217
Flags: HW
LayerCount: 2
Back
SplineSet
40.521484375 -134.936523438 m 1
 20.05859375 -78 l 1
 45.7041015625 -62.3359375 71.595703125 -37.8408203125 58.432617187 -29.34375 c 0
 43.336914062 2.455078125 41.158203125 25.58984375 9.6416015625 33.1181640625 c 0
 1.5537109375 35.1484375 -2.05859375 46.1640625 -0.208984375 54.859375 c 0
 1.2978515625 61.9560546875 8.1943359375 67.1611328125 15.5322265625 70.236328125 c 0
 78.1943359375 104.709960938 84.87890625 118.261718749 119.320312499 166.00390625 c 0
 123.835937501 172.734374999 131.1640625 178.649414062 140.6640625 178.649414062 c 3
 148.189453124 178.649414062 152.413085938 171.809570314 155.536132812 166.00390625 c 0
 178.569335938 125.099609375 189.017578125 104.728515625 219.31640625 97.30078125 c 0
 230.767578126 98.2109375 240.225585936 113.220703125 239.596679688 110.267578125 c 0
 230.428710938 67.1318359375 154.625 -75.00390625 40.521484375 -134.936523438 c 1
EndSplineSet
Fore
SplineSet
40.521484375 -134.936523438 m 1
 20.05859375 -78 l 1
 45.7041015625 -62.3359375 64.3987775342 -43.8307084806 58.432617187 -29.34375 c 0
 45.336914062 2.455078125 41.158203125 25.58984375 9.6416015625 33.1181640625 c 0
 1.5537109375 35.1484375 -2.05859375 46.1640625 -0.208984375 54.859375 c 0
 1.2978515625 61.9560546875 8.1943359375 67.1611328125 15.5322265625 70.236328125 c 0
 78.1943359375 104.709960938 84.87890625 118.261718749 119.320312499 166.00390625 c 0
 123.835937501 172.734374999 131.1640625 178.649414062 140.6640625 178.649414062 c 3
 148.189453124 178.649414062 152.301539077 171.748169507 155.536132812 166.00390625 c 0
 178.569335938 125.099609375 180.21875 82.8291015625 211.31640625 74.30078125 c 0
 222.39453125 71.2626953125 230.62890625 57.953125 230 55 c 0
 220.83203125 11.8642578125 154.625 -75.00390625 40.521484375 -134.936523438 c 1
EndSplineSet
Position2: "cpsp-1" dx=0 dy=0 dh=7 dv=16
Position2: "Extra space for context kern-1" dx=78 dy=34 dh=156 dv=66
EndChar
StartChar: one
Encoding: 49 49 64
Width: 485
Flags: HW
LayerCount: 2
Fore
SplineSet
214.891601562 505.12109375 m 1
 229.020507812 504.19140625 246.178710938 503.76171875 264.959960938 503.76171875 c 0
 349.948939355 503.76171875 464.589233822 510.470932629 505.352539062 524.05078125 c 1
 485.928710938 453.084960938 l 1
 407.708815684 459.718315564 400.663163998 419.208441939 395.8515625 409.62890625 c 0
 381.431059918 373.232955656 368.351799174 309.060924875 355.486328125 248.504882812 c 0
 339.637399487 173.897684863 337.902649948 108.254190125 346.623046875 86.615234375 c 0
 352.296849841 72.9397490181 387.481284611 59.1635960957 408.776367188 55.734375 c 1
 387.014648438 -0.65625 l 1
 347.208084459 -0.369140625 303.166734704 -0.2109375 253.758789062 -0.2109375 c 0
 207.378821901 -0.2109375 156.249187749 -0.3515625 99.427734375 -0.65625 c 1
 103.620117188 54.5673828125 l 1
 63.799665584 56.7647655069 177.013593656 77.6786206957 184.28515625 84.8779296875 c 0
 207.254778846 106.832469905 222.196874451 140.890352689 244.991210938 248.504882812 c 0
 264.656734384 341.371136382 264.516428832 355.323248533 267.653320312 406.208984375 c 0
 269.739711086 433.915808889 240.407148717 437.014350459 201.051757812 448.640625 c 1
 214.891601562 505.12109375 l 1
EndSplineSet
Substitution2: "case-1" one.proportionallining
Substitution2: "lnum-1" one.proportionallining
Substitution2: "tnum-1" one.tabulartext
Substitution2: "numr-1" one.numerator
Substitution2: "dnom-1" one.denom
EndChar
StartChar: three
Encoding: 51 51 66
Width: 490
Flags: HW
LayerCount: 2
Fore
SplineSet
65.3828125 -123.62890625 m 1
 222.696610477 -74.3941462494 283.5234375 -44.1171875 298.32421875 28.669921875 c 0
 314.316307197 107.994149422 269.756877401 138.155090286 239.328125 161.88671875 c 1
 225.51845696 156.318797591 185.738266312 143.179765507 160.161132812 138.388671875 c 1
 138.532226562 183.491210938 l 1
 226.704638553 227.350384111 309.998046876 257.087890624 327.506835936 333.751953126 c 0
 335.751274459 370.24226982 298.24912853 399.162109376 280.31640625 399.162109376 c 3
 211.071656616 399.162109376 211.8206412 378.486924641 188.733398438 364.872070312 c 1
 159.5078125 402.51171875 l 1
 194.213867188 444.116210938 287.559570312 507.384765625 356.868164062 507.384765625 c 3
 439.041992188 507.384765625 478.02036728 448.021514247 463.852539062 381.3671875 c 0
 446.038085938 297.55859375 385.926757812 261.564453125 357.352539062 240.3359375 c 1
 394.797851562 214.649414062 452.941885584 165.614363502 432.291992188 68.4609375 c 0
 405.958007812 -55.4287109375 182.245117188 -148.784179688 80.3564453125 -177.099609375 c 1
 65.3828125 -123.62890625 l 1
EndSplineSet
Substitution2: "case-1" three.proportionallining
Substitution2: "lnum-1" three.proportionallining
Substitution2: "tnum-1" three.tabulartext
Substitution2: "numr-1" three.numerator
Substitution2: "dnom-1" three.denom
EndChar
StartChar: four
Encoding: 52 52 67
Width: 641
Flags: HW
LayerCount: 2
Fore
SplineSet
355.884765625 80.9599609375 m 1
 375.661693554 166.921056771 394.837116407 244.937615394 396.071289062 303.046875 c 1
 396.071289062 303.046875 270.853059842 163.575011083 190.493164062 78.408203125 c 1
 238.940865311 80.9599609375 317.235312036 80.9599609375 355.884765625 80.9599609375 c 1
579.959960938 472.17578125 m 1
 543.548152395 425.139811331 517.730020403 346.938146372 492.567382812 224.267578125 c 0
 478.730331938 156.571704746 480.607606567 164.45884846 464.64453125 86.39453125 c 1
 503.934607289 88.1037944903 522.923014548 97.7161307869 580.913085938 130.48046875 c 1
 580.913085938 130.48046875 618.999023438 113.833007812 622.149414062 111.841796875 c 1
 622.149414062 111.841796875 582.364762566 39.4246882896 557.225585938 -8.634765625 c 1
 526.794559029 -7.92011830236 477.882939116 -7.7262547638 443.298828124 -7.712890625 c 1
 450.031434124 4.7439754572 445.728158857 -90.7989431945 455.943359375 -94.715820312 c 1
 396.270291374 -103.241934438 387.253194096 -166.857945299 349.356445312 -177.099609375 c 1
 349.356445312 -177.099609375 267.240570151 -140.108969056 264.8125 -135.603515624 c 1
 317.399760068 -102.392413763 326.009904584 -61.3725690647 337.34765625 -10.91015625 c 1
 70.2841751382 -10.91015625 130.781096901 1.5088544366 81.7216796875 -40.75390625 c 1
 81.7216796875 -40.75390625 22.8365233093 3.52643401628 19.1455078125 7.71484375 c 1
 43.0322265625 27.455078125 472.56640625 447.77734375 514.59765625 515.017578125 c 1
 579.959960938 472.17578125 l 1
EndSplineSet
Substitution2: "case-1" four.proportionallining
Substitution2: "lnum-1" four.proportionallining
Substitution2: "tnum-1" four.tabulartext
Substitution2: "numr-1" four.numerator
Substitution2: "dnom-1" four.denom
EndChar
StartChar: d
Encoding: 100 100 3
Width: 541
VWidth: 1159
Flags: HMW
AnchorPoint: "Top" 430.715 749 basechar 0
AnchorPoint: "Bottom" 221.281 -15 basechar 0
LayerCount: 2
Back
SplineSet
276.825546875 365.92 m 3
 233.548769531 365.92 136.142421875 341.428710938 144.417421875 200.171796875 c 0
 147.442695313 150.864179689 163.598242189 110.08 192.945546875 110.08 c 3
 222.56986328 110.08 275.393378905 142.637988282 305.985546875 240.18 c 0
 321.195507812 288.675117188 335.103632812 338.031230469 336.409003905 367.675917968 c 0
 337.093261719 379.478281252 294.1903125 365.92 276.825546875 365.92 c 3
EndSplineSet
Fore
SplineSet
300.319335938 93.9599609375 m 1
 251.442382812 44.302734375 168.370117188 -9 132.865234375 -9 c 3
 64.1474609375 -9 20.6748046875 49.6953125 16.806640625 132.672851562 c 0
 10.1044921875 276.461914062 190.39453125 485 366.565429688 485 c 3
 372.044921875 485 374.025390625 483.250976562 370.10546875 486.900390625 c 1
 376.518554688 507.451171875 373.146484375 521.91796875 372.92578125 536.120117188 c 0
 370.866210938 591.459960938 346.037109375 607.420898438 323.676757812 607.420898438 c 3
 321.334960938 607.420898438 293.063476562 604.79296875 300.913085938 605.720703125 c 1
 297.975585938 676.142578125 l 1
 370.327148438 688.932617188 467.954101562 728.465820312 530.469726562 768 c 1
 550 750 l 1
 546.668945312 706.823242188 486.6015625 406.551757812 426.516601562 211.735351562 c 0
 414.506835938 173.053710938 410.803710938 171.208007812 412.494140625 147.041992188 c 0
 413.563476562 131.428710938 420.985351562 118.719726562 439.461914062 118.719726562 c 3
 457.432617188 118.719726562 474.499023438 128.280273438 486.825195312 128.599609375 c 1
 522.077148438 69 l 1
 477.5078125 27 389.469726562 -11 352.875 -11 c 3
 316.516601562 -11 301.861328125 9.2724609375 298.690429688 40.1328125 c 0
 297.056640625 56.89453125 297.8359375 75.072265625 300.319335938 93.9599609375 c 1
308.099609375 373 m 3
 238.918945312 373 135.8515625 341.405273438 144.517578125 200.171875 c 0
 147.54296875 150.864257812 163.698242188 110.080078125 193.045898438 110.080078125 c 3
 222.669921875 110.080078125 275.4921875 142.638671875 306.0859375 240.1796875 c 0
 321.295898438 288.674804688 332.381835938 324.375976562 334.099609375 354 c 0
 334.784179688 365.802734375 325.46484375 373 308.099609375 373 c 3
EndSplineSet
Substitution2: "pcap-1" d.pcap
Substitution2: "smcp-1" d.smcp
EndChar
StartChar: h
Encoding: 104 104 7
Width: 535
VWidth: 1159
Flags: HMW
AnchorPoint: "Top" 262.456 749 basechar 0
AnchorPoint: "Bottom" 177.022 -15 basechar 0
LayerCount: 2
Fore
SplineSet
172.634765625 246.540039062 m 0
 158.553710938 185.217773438 129.716796875 79.400390625 124.713867188 -4 c 1
 -7 -4 l 1
 28.515625 137.5234375 105.838867188 496.690429688 121.666015625 590 c 0
 124.411132812 608.094726562 123.8515625 619.334960938 123.71875 624.120117188 c 0
 123.602539062 628.38671875 122.803710938 632.120117188 116.880859375 632.120117188 c 3
 112.411132812 632.120117188 91.943359375 635.38671875 83.9150390625 636.040039062 c 1
 91.0478515625 647.642578125 96.806640625 687.41796875 96.2431640625 699.01953125 c 1
 161.704101562 711.135742188 239.807617188 723.249023438 324.811523438 764 c 1
 354.776367188 728 l 1
 339.231445312 714 322.0546875 689.951171875 313.9296875 681 c 0
 277.81640625 638.681640625 238.202148438 537.279296875 197.694335938 382.379882812 c 1
 218.87890625 406.362304688 300.1171875 486 374.293945312 486 c 3
 453.9921875 486 507.62109375 424.758789062 507.62109375 364.15234375 c 3
 507.62109375 195.208007812 408.211914062 52.3720703125 345.274414062 -23 c 1
 254.1640625 0.9423828125 243.11328125 28.3076171875 244.965820312 106.98046875 c 1
 300.477539062 113.776367188 410.383789062 196.504882812 410.383789062 285.599609375 c 3
 410.383789062 343.760742188 372.470703125 383.51953125 330.154296875 383.51953125 c 3
 273.015625 383.51953125 197.78515625 356.479492188 172.634765625 246.540039062 c 0
EndSplineSet
Substitution2: "pcap-1" h.pcap
Substitution2: "smcp-1" h.smcp
EndChar
StartChar: r
Encoding: 114 114 17
Width: 436
VWidth: 1159
Flags: HMW
AnchorPoint: "Bottom" 101.381 -15 basechar 0
AnchorPoint: "Top" 268.859 537 basechar 0
LayerCount: 2
Fore
SplineSet
103.690429688 311.810546875 m 1
 103.622070312 336.165039062 99.646484375 348.163085938 92.9521484375 348.163085938 c 3
 90.357421875 348.163085938 77.126953125 322.833984375 71.4091796875 309.780273438 c 1
 29.142578125 335.529296875 l 1
 54.53515625 426.36328125 133.48046875 477.056640625 186.666992188 514.337890625 c 1
 225.685546875 507.28515625 242.551757812 469.979492188 242.8203125 419.352539062 c 0
 242.885742188 407.022460938 242.74609375 392.444335938 242.209960938 376.700195312 c 1
 287.561523438 439.100585938 370.030273438 502.6015625 393.69140625 508.896484375 c 1
 431.702148438 501.80859375 474.975585938 466.3671875 467.052734375 429.508789062 c 1
 446.376953125 342.349609375 401.064453125 300.790039062 337.701171875 279.688476562 c 1
 331.143554688 306.842773438 319.977539062 339.427734375 299.252929688 339.427734375 c 3
 269.96875 339.427734375 229.31640625 311.267578125 210.421875 232.431640625 c 0
 206.38671875 215.59375 203.515625 199.200195312 202.0390625 190.739257812 c 0
 194.795898438 149.241210938 190.858398438 117.299804688 188.455078125 97.8193359375 c 0
 186.9765625 85.8427734375 186.7109375 75.8876953125 183.365234375 64.3779296875 c 0
 181.192382812 56.90234375 177.385742188 44.94921875 174.546875 37.6796875 c 0
 169.528320312 24.833984375 165.8515625 13.15625 159.447265625 0.310546875 c 1
 150.190429688 0.9482421875 85.91796875 -2.0263671875 72.09765625 -1.9833984375 c 1
 65.966796875 -1.9833984375 45.5625 -3.130859375 41.33203125 1.4580078125 c 1
 41.1162109375 9.48828125 45.8623046875 34.7021484375 46.51953125 39.314453125 c 0
 47.1591796875 43.796875 48.0009765625 62.7919921875 50.3271484375 67.3330078125 c 0
 51.4912109375 69.60546875 54.30859375 92.3828125 56.4189453125 97.8193359375 c 0
 62.5947265625 113.733398438 82.212890625 209.299804688 98.20703125 260.9375 c 0
 103.319335938 277.443359375 103.5859375 297.8203125 103.690429688 311.810546875 c 1
EndSplineSet
Substitution2: "pcap-1" r.pcap
Substitution2: "smcp-1" r.smcp
EndChar
StartChar: thorn
Encoding: 254 254 317
Width: 515
Flags: HW
LayerCount: 2
Fore
SplineSet
145 332 m 9
 144 241 143 189 143 98 c 3
 143 92 147 85 154 79 c 0
 185 52 227 36 268 36 c 3
 345 36 406 96 406 180 c 3
 406 270 352 369 251 369 c 3
 207 369 155 342 145 332 c 9
76 31 m 24
 79.1289 217.79 80 367 80 510 c 3
 80 570 80 607 76 627 c 0
 71 654 64 656 46 656 c 3
 36 656 25 654 16 654 c 1
 11 683 l 1
 48 690 104 718 154 759 c 1
 175 743 l 1
 165 717 157 687 156 667 c 0
 151 599 145 484 145 368 c 1
 178 382 234 412 294 412 c 3
 399 412 475 315 475 223 c 3
 475 94 363.004 -10 225 -10 c 3
 198 -10 170 -2 144 7 c 1
 144 -75 144 -247 149 -284 c 0
 151 -299 170 -303 181 -304 c 0
 197 -305 216 -307 230 -308 c 1
 229 -342 l 1
 190 -341 159 -339 117 -339 c 3
 87 -339 39 -344 9 -348 c 1
 6 -316 l 1
 17 -315 25 -313 36 -311 c 0
 59 -305 65 -294 67 -266 c 0
 72 -214 74.0589 -84.8672 76 31 c 24
EndSplineSet
Substitution2: "pcap-1" thorn.pcap
Substitution2: "smcp-1" thorn.smcp
EndChar
StartChar: dotlessi
Encoding: 305 305 50
Width: 284
VWidth: 1159
Flags: HMW
AnchorPoint: "Bottom" 92.1807 -15 basechar 0
AnchorPoint: "Top" 207.66 537 basechar 0
LayerCount: 2
Back
SplineSet
174.36 245.162109375 m 0
 169.080214844 217.880001395 168.56 171.525497518 170.22 165.219023438 c 1
 171.88 154.439160157 175.491704798 152.060149741 182.52 157.323828125 c 1
 175.437021276 152.001291074 190.144887547 159.836970565 193.46 161.5884375 c 1
 232.82 115 l 1
 176.28537954 36.4401289063 121.371426339 -11 88.56 -11 c 3
 41.6188852502 -11 26.24 36.0992086966 26.24 85.323203125 c 3
 26.24 140.185567331 51.3862794088 191.458623537 67.22 245.3515625 c 0
 71.286701004 258.386121211 88.083984375 301.036132812 86.3603515625 339.080078125 c 0
 86.6064453125 341.900390625 84.36 344.12013569 83.36 344.4 c 1
 81.268270887 344.4 68.2177734375 334 63.419921875 330.419921875 c 1
 28.0595703125 379.647460938 l 1
 57.453125 421.729492188 160.045025698 507 207.9 507 c 3
 264.01128551 507 254.853713022 482.222807388 250.92 448.813476562 c 0
 249.922 440.328057454 244.04350536 426.712533451 240.94 419.720703125 c 0
 220.597327009 373.89884668 178.068051392 264.322634943 174.36 245.162109375 c 0
EndSplineSet
Fore
SplineSet
176.360351562 245.162109375 m 0
 168.39453125 204 168.56 171.525497518 170.22 165.219023438 c 1
 171.88 154.439160157 175.491704798 152.060149741 182.52 157.323828125 c 1
 175.437021276 152.001291074 190.144887547 159.836970565 193.46 161.5884375 c 1
 232.82 115 l 1
 176.28537954 36.4401289063 121.371426339 -11 88.56 -11 c 3
 41.6188852502 -11 26.24 36.0992086966 26.24 85.323203125 c 3
 26.24 140.185567331 50.6101043449 191.692761319 67.22 245.3515625 c 0
 85.9935133166 306 87.2395493435 320 86.3603515625 339.080078125 c 0
 86.2300378377 341.908106248 84.36 344.12013569 83.36 344.4 c 1
 81.268270887 344.4 68.2177734375 334 63.419921875 330.419921875 c 1
 28.0595703125 379.647460938 l 1
 57.453125 421.729492188 160.045025698 507 207.9 507 c 3
 264.01128551 507 254.64839736 476 253 462 c 0
 250.880631966 444 244.043945467 426.712338082 240.94 419.720703125 c 0
 220.597327009 373.89884668 185.811523438 294 176.360351562 245.162109375 c 0
EndSplineSet
Substitution2: "pcap-1" i.pcap
Substitution2: "smcp-1" i.smcp
EndChar
StartChar: eng
Encoding: 331 331 467
Width: 499
Flags: HW
LayerCount: 2
Fore
SplineSet
329 -267 m 0
 284.360294118 -296 253 -319 194 -319 c 3
 162 -319 112 -308 87 -286 c 1
 88 -259 87 -259 136 -222 c 1
 165.972222222 -237.857142857 189.796296296 -259 219 -259 c 3
 247.822033898 -259 296.27809609 -258.437912348 316 -237 c 0
 342.595265849 -208.090672547 360.595200234 -175.050461911 367 -146 c 0
 373.749647059 -115.385402827 379 -41.9109823322 379 143 c 3
 379 192.5 376.549026451 266.820841347 374 287 c 0
 369 328.328358209 348 358 293 358 c 3
 245 358 203 344.4 170 324 c 1
 168 234.329113924 161 109.430379747 161 71 c 3
 161 27.80589946 195.795590225 30.6204409775 232 27 c 1
 228 -7 l 1
 189 -1 159 4 117 4 c 3
 87 4 51 -1 21 -5 c 1
 18 28 l 1
 55.449092135 34.8089258427 78.318284601 37.5524032329 87 76 c 0
 94 107 95 167 95 199 c 3
 95 219 92.9313485794 287.976104104 86 308 c 0
 77 334 72 336 54 336 c 3
 44 336 41 335 32 335 c 1
 30 364 l 1
 67 371 104 375 154 416 c 1
 175 401 l 1
 170 387.056338028 167 366.915492958 167 346 c 1
 215 377 267 415 330 415 c 3
 403 415 448 375 448 304 c 3
 448 213.433607383 445 119.425469455 445 -84 c 3
 445 -134 432.819094368 -164.880515375 419 -186 c 0
 396.752808989 -220 368.44138087 -241.377070309 329 -267 c 0
EndSplineSet
Substitution2: "smcp-1" eng.smcp
Substitution2: "pcap-1" eng.pcap
EndChar
StartChar: uni018F
Encoding: 399 399 1120
Width: 677
Flags: HW
AnchorPoint: "Bottom" 319.554 -15 basechar 0
AnchorPoint: "Top" 349.525 679 basechar 0
LayerCount: 2
Fore
SplineSet
326.5 -24.5 m 3
 225 -24.5 118.872242445 54.5066181322 83.25 140 c 0
 74.5 161 48.25 175 29 176.75 c 1
 29 218.75 l 1
 551.25 318.5 l 1
 551.25 331.526315789 553 346.723684211 553 359.75 c 3
 553 563.525 424.453488372 645.75 279.25 645.75 c 3
 193.289473684 645.75 121.960526316 605.783333334 70.75 564 c 1
 43 595.25 l 1
 116.5 652.029411765 221.5 712.25 342.25 712.25 c 3
 529.5 712.25 636.25 570.057894737 636.25 386.75 c 3
 636.25 80.5 386 -24.5 326.5 -24.5 c 3
343 44.75 m 3
 473.076470588 44.75 534.114705882 157.372881356 547.75 278.25 c 1
 415.398106353 253.269238068 285.181111171 226.148189916 151.5 202.5 c 1
 171.872340426 128.49382716 257.436170213 44.75 343 44.75 c 3
EndSplineSet
Position2: "cpsp-1" dx=0 dy=0 dh=50 dv=100
EndChar
StartChar: uni0196
Encoding: 406 406 1969
Width: 326
Flags: HW
LayerCount: 2
Fore
SplineSet
116.599609375 539 m 0
 115 565 105.637695312 597 82.400390625 597 c 3
 70.6728515625 597 48 588 30.2001953125 586.25 c 1
 22 622 l 1
 68.0712890625 631.827148438 116.142578125 647.166015625 176.400390625 695 c 1
 199.15234375 689.430664062 199.329101562 668.951171875 202 637 c 0
 203.436523438 619.815429688 204.200195312 609.422851562 204.200195312 592.5 c 0
 204.200195312 518.0078125 197.456054688 417.247070312 197.456054688 287.506835938 c 3
 197.456054688 230.994140625 196.682617188 168.198242188 200 99 c 0
 201.931640625 58.7138671875 226.203125 38 249 38 c 3
 267.307617188 38 290.223632812 55.2900390625 305.508789062 62.3857421875 c 1
 320 32 l 1
 263.69140625 0.3720703125 228.991210938 -32 192.883789062 -32 c 3
 129.415039062 -32 113.473632812 15.7177734375 113.473632812 77.9169921875 c 3
 113.473632812 161.350585938 123.151367188 240.983398438 123.151367188 333.733398438 c 3
 123.151367188 397.54296875 121.129882812 465.366210938 116.599609375 539 c 0
EndSplineSet
EndChar
StartChar: uni01B3
Encoding: 435 435 1984
Width: 800
Flags: HW
AnchorPoint: "Top" 387 699 basechar 0
AnchorPoint: "Bottom" 387 -15 basechar 0
LayerCount: 2
Fore
SplineSet
431 335 m 1
 430 285 424.409677786 232.80451327 444 80 c 0
 449 41 469 36 550 32 c 1
 545 -11 l 1
 440.578125 3.193359375 352.874023438 6.126953125 249 -11 c 1
 237 31 l 1
 316 43.8798828125 353.891760422 55.8578591121 353 100 c 2
 349 298 l 1
 342 309.404296875 244.657000474 472.503851361 114 608 c 0
 87 636 65 636 6 652 c 1
 10 692 l 1
 67 686 211 679 269 690 c 1
 274 651 l 1
 274 651 252 649 237 649 c 0
 219 649 204.251994244 639.160430422 215 622 c 0
 306 476.708007812 396 373.2265625 401 368 c 1
 503.652364082 548.396433938 557.974118707 701.489257812 679.770507812 701.489257812 c 3
 750.689656377 701.489257812 793 659.763980872 793 599 c 3
 793 559.444658561 765.129127673 540.030273438 735.740234375 540.030273438 c 3
 713.598681853 540.030273438 690.595489704 552.806929751 678 578 c 1
 687.570921215 592.361991845 696 599.861661579 696 627 c 3
 696 637.211920027 681.656639289 645.274414062 664.823242188 645.274414062 c 3
 589.980104771 645.274414062 470.279577527 407.537279721 431 335 c 1
EndSplineSet
EndChar
StartChar: uni021D
Encoding: 541 541 1740
Width: 342
UnlinkRmOvrlpSave: 1
Flags: HW
LayerCount: 2
Fore
SplineSet
197.399414062 184.862304688 m 1
 244.379882812 175.697265625 319 106.369140625 319 66.1875 c 3
 319 -47.423828125 134.208007812 -165.263671875 35.267578125 -175 c 1
 31.6474609375 -147.145507812 l 1
 123.5625 -139.0078125 242.686523438 -36.8544921875 242.686523438 50.283203125 c 3
 242.686523438 85.0244140625 182.979492188 140.384765625 131 152 c 1
 197.399414062 184.862304688 l 1
62.7705078125 144.651367188 m 1
 146.012695312 167.703125 225.76171875 215.313476562 225.76171875 295.90625 c 3
 225.76171875 334.392578125 169 374 132 374 c 3
 110 374 99 367.434570312 99 348 c 3
 99 344.661132812 101.467773438 337.622070312 103 333 c 1
 29 304 l 1
 27.2666015625 307.299804688 23 316.0625 23 326 c 3
 23 376 160.86328125 422 188 422 c 3
 214 422 299.456054688 366.014648438 299.456054688 322.538085938 c 3
 299.456054688 224.346679688 168.538085938 139.140625 72.904296875 122.159179688 c 1
 62.7705078125 144.651367188 l 1
EndSplineSet
EndChar
StartChar: uni0242
Encoding: 578 578 1980
Width: 348
Flags: HW
LayerCount: 2
Fore
SplineSet
172 66 m 3
 172 45.517578125 178.987154447 39.5341796875 219 34 c 0
 235 30 253 29 267 28 c 1
 262 -6 l 1
 220.192166759 -0.5458984375 173.023731333 4 128 4 c 3
 103.943359375 4 67.056640625 -1 43 -5 c 1
 41 28 l 1
 52 29 67.154296875 30.287109375 78 33 c 0
 93.5615234375 36.892578125 103 51.724609375 103 70 c 3
 103 128.288085938 137.194335938 144.490234375 176 156 c 0
 215.970703125 166.338867188 251 193.333984375 251 252 c 3
 251 320.69280599 192.285714286 368 114 368 c 3
 76.6421052632 368 45.0315789474 352 23 336 c 1
 7 362 l 1
 40.1111111111 389 97.568627451 419 156 419 c 3
 197.328778039 419 323 400.015140086 323 278 c 3
 323 202.75 250 149.125976562 214 138 c 0
 183.868164062 126.14453125 172 105.94140625 172 66 c 3
EndSplineSet
EndChar
StartChar: uni025B
Encoding: 603 603 1188
Width: 444
Flags: HW
AnchorPoint: "Bottom" 243 -15 basechar 0
AnchorPoint: "Top" 252 537 basechar 0
LayerCount: 2
Back
SplineSet
350 370 m 1
 336 384 275 431 232 431 c 3
 162 431 116 367 116 274 c 3
 116 169 185 79 278 79 c 3
 318 79 344 95 379 122 c 1
 421 56 l 1
 372 24 316 -10 249 -10 c 3
 190 -10 20 40 20 230 c 3
 20 389 133 516 269 516 c 3
 335 516 399 485 422 464 c 1
 407 399 418 404 350 370 c 1
EndSplineSet
Fore
SplineSet
350.120117188 368.080078125 m 1
 311.465121634 401.040039062 259.586048653 434 225 434 c 3
 181.384615385 434 162 418 162 394 c 3
 162 345 190.24137931 298.717171717 344 285 c 1
 344 259.137931034 342 233.275862069 340 210 c 1
 171.385542169 224.777777778 166 189.835860107 166 153 c 3
 166 110.141145833 214.156419837 72.6396484375 276.759765625 72.6396484375 c 3
 318.961790707 72.6396484375 354.671196546 94.4799804688 379.559570312 116.3203125 c 1
 420.400390625 54.080078125 l 1
 382.533637153 27.7789884868 316.823682598 -12 250 -12 c 3
 121.391005479 -12 34.7197265625 54.9321240718 34.7197265625 141.639648438 c 3
 34.7197265625 174.58312016 70 228 128 248 c 1
 78.2001953125 274.441452206 58.2802734375 318.911167279 58.2802734375 350.16015625 c 3
 58.2802734375 444.400111607 158.720180377 515.080078125 269.080078125 515.080078125 c 3
 325.974975586 515.080078125 384.055183411 490.279932776 420.799804688 461.759765625 c 1
 409 400 415 401 350.120117188 368.080078125 c 1
EndSplineSet
EndChar
StartChar: uni027E
Encoding: 638 638 1992
Width: 358
Flags: HW
AnchorPoint: "Top" 165.5 465 basechar 0
AnchorPoint: "Bottom" 145 -15 basechar 0
LayerCount: 2
Fore
SplineSet
160 352 m 0
 198 389 286.484375 422.183908046 294 423 c 1
 315 423 349 395 349 368 c 3
 349 337 320 316 281 316 c 1
 272.882352941 349.75 255.294117647 356 235 356 c 3
 221.829268293 356 188.816323543 344.734013813 175 324 c 0
 160 307 160 218.432989691 160 196 c 0
 160 157 161.185553521 61.3773357746 169 52 c 0
 179 40 189.018145158 36.3113659276 226 34 c 0
 242 33 260 33 274 32 c 1
 273 0 l 1
 234 1 162 4 120 4 c 3
 90 4 60 -1 30 -5 c 1
 28 28 l 1
 39 29 50 29 60 33 c 0
 70 37 84.7614449357 48.0180616964 87 76 c 0
 89 101 91 192 91 218 c 3
 91 261.152542373 119.735258602 312.794857059 160 352 c 0
EndSplineSet
EndChar
StartChar: uni0302
Encoding: 770 770 93
Width: 0
Flags: HW
AnchorPoint: "TopMark" -113.757 768 basemark 0
AnchorPoint: "TopMark" -163.857 537 mark 0
AnchorPoint: "Top" -157.857 537 mark 0
LayerCount: 2
Fore
SplineSet
1.9267578125 612.200195312 m 1
 -53.5673828125 572 l 1
 -148.583984376 621.962890624 l 1
 -255.467773438 580 l 1
 -286.573242188 612.200195312 l 1
 -142.3515625 731.80078125 l 1
 -92.451171875 731.80078125 l 1
 1.9267578125 612.200195312 l 1
EndSplineSet
EndChar
StartChar: uni030A
Encoding: 778 778 98
Width: 0
Flags: HW
AnchorPoint: "TopMark" -123.157 752 basemark 0
AnchorPoint: "TopMark" -163.857 537 mark 0
AnchorPoint: "Top" -157.857 537 mark 0
LayerCount: 2
Fore
SplineSet
-121.837890625 715.864257812 m 3
 -142.315429688 715.864257812 -179 688 -183.458007812 665.870117188 c 0
 -189.546892982 635.644437708 -170.606445312 615.606445312 -143.1484375 615.606445312 c 3
 -123.990399119 615.606445312 -86 644 -81.529296875 665.600585938 c 0
 -75.6970169399 693.779747118 -94.380859375 715.864257812 -121.837890625 715.864257812 c 3
-110.869140625 767.470703125 m 3
 -56.3662109375 767.470703125 -19.212890625 722.479492188 -31.3828125 665.220703125 c 0
 -44.041015625 605.669921875 -101.986328125 562 -154.54296875 562 c 3
 -210.661132812 562 -249.984375 603.299804688 -236.81640625 665.25 c 0
 -224.28125 724.221679688 -164.983398438 767.470703125 -110.869140625 767.470703125 c 3
EndSplineSet
EndChar
StartChar: uni0313
Encoding: 787 787 111
Width: 0
Flags: HW
AnchorPoint: "Top" -157.857 537 mark 0
AnchorPoint: "TopMark" -163.857 537 mark 0
AnchorPoint: "TopMark" -113.757 768 basemark 0
LayerCount: 2
Fore
SplineSet
-179.055664062 569 m 1
 -195.915039062 612 l 1
 -201.8125 600.87109375 -167.006757715 629.541666624 -166.986328125 646 c 0
 -166.977766823 650.994145792 -169.064548508 653.519398282 -170.6484375 657 c 0
 -171.170898438 658.151367188 -171.882309309 660.600478978 -171.373046875 663 c 0
 -169.606445312 671.306640625 -164.665095561 675.291348842 -160.546875 681 c 0
 -145.834106783 695.257709704 -124.245882874 707.278479876 -106.234375 714 c 0
 -101.912109375 715.739257812 -95.81640625 718 -89.384765625 718 c 3
 -78.95703125 718 -70.1882901318 714.270884464 -63.1474609375 705 c 0
 -58.1845703125 698.462890625 -55.2411367916 694.244530143 -52.1865234375 686 c 0
 -49.0673828125 677.587890625 -47.3020534789 671.341859716 -49.287109375 662 c 0
 -54.0546875 639.5703125 -104.338867188 591.731445312 -179.055664062 569 c 1
EndSplineSet
EndChar
StartChar: uni0374
Encoding: 884 884 957
Width: 138
Flags: HW
LayerCount: 2
Fore
SplineSet
32 465 m 1
 73 744 l 1
 136 728 l 1
 62 458 l 1
 32 465 l 1
EndSplineSet
Position2: "cpsp-1" dx=0 dy=0 dh=7 dv=14
EndChar
StartChar: theta1
Encoding: 977 977 1030
Width: 504
UnlinkRmOvrlpSave: 1
Flags: HMW
LayerCount: 2
Fore
SplineSet
512 434 m 1
 458 409.799804688 395.89453125 406 320 406 c 3
 170.569335938 406 -3 462.943359375 -3 608 c 3
 -3 678.328125 52.9169921875 732 128 732 c 3
 363.02734375 732 464 461.5078125 464 224 c 3
 464 114.9375 442.337890625 -8 334 -8 c 3
 239.801757812 -8 129.841796875 63 105 63 c 3
 78.6708984375 63 59 52.6669921875 59 32 c 3
 59 -20.623046875 122.60546875 -16.9228515625 164 -28 c 1
 159 -53.0712890625 155 -67.9287109375 150 -93 c 1
 34 -78 16 19.931640625 16 72 c 3
 16 123 51.1845703125 140 94 140 c 3
 182.668945312 140 255.993164062 81 330 81 c 3
 404.7265625 81 430 160.874023438 430 244 c 3
 430 381.73828125 352.559570312 685 168 685 c 3
 106.172851562 685 66 655.69921875 66 608 c 3
 66 498.3203125 201.840820312 472 310 472 c 3
 383.006835938 472 435 476 494 500 c 1
 512 434 l 1
EndSplineSet
Substitution2: "pcap-1" theta.pcap
Substitution2: "smcp-1" theta.smcp
EndChar
StartChar: uni03E2
Encoding: 994 994 1764
Width: 745
UnlinkRmOvrlpSave: 1
Flags: HW
LayerCount: 2
Fore
SplineSet
627 199 m 1
 663.470588235 216.083333333 683.529411765 222.916666667 720 240 c 1
 720 58.0729927007 657.726682562 -162 464 -162 c 3
 348.059561651 -162 286.476709355 -132 170 -132 c 3
 153.636083055 -132 132 -135.155495574 132 -165 c 3
 132 -177.281768469 141.747222222 -186.214285714 154 -192 c 1
 152 -206 150 -214 148 -228 c 1
 121.818181818 -220.210758377 84 -192.158853169 84 -155 c 3
 84 -90.1330250093 139.362038139 -51 195 -51 c 3
 335.185591271 -51 411.32967443 -78 552 -78 c 3
 668.610599394 -78 627.192086903 152.857942431 627 199 c 1
519 39 m 3
 578.717460938 39 627 106.096153846 627 199 c 0
 627 430.557239601 525.870850412 424.315235343 510.999023438 695.245117188 c 1
 591.33844198 695.487304688 667.244607882 698.896484375 677.385742188 706 c 1
 674.380859375 653.461487409 676.53125 599.871264411 686 558 c 1
 646 553 l 1
 646 585.268907563 643 611.183629007 599 617 c 1
 588.761597929 618.398830456 576.527951903 619.359507712 563.619140625 619.892578125 c 1
 567.228994471 483.613363015 720 450.890560628 720 240 c 0
 720 109.019586348 617.10591468 -9.86328125 492 -9.86328125 c 3
 393.219453367 -9.86328125 328 117.628256089 328 216 c 3
 328 278.337960811 335.6 320.666666667 344 373 c 1
 370.274509804 373 384.725490196 373 411 373 c 1
 419.666666667 320.666666667 427 279.030113727 427 216 c 3
 427 111.247911715 356.776724423 -10 230 -10 c 3
 118.751234802 -10 29 102.464878015 29 240 c 0
 29 449.414059326 189.905160501 494.546195695 198.216796875 619.943359375 c 1
 178.050518954 619.618191916 160.305545639 618.707412876 147 618 c 0
 117 615.657657658 114 584.036036036 109 553 c 1
 66 557 l 1
 80.4287109375 615.5006559 83.5283203125 656.67574724 79.1884765625 706 c 1
 90.4230705838 699.697265625 167.220955252 695.974609375 248.009765625 695.344726562 c 1
 233.072743833 431.796104637 130 490.656149958 130 260 c 0
 130 148.188718441 182.299527572 39.6884765625 248 39.6884765625 c 3
 325.80462195 39.6884765625 363.884615385 136.989009034 379 200 c 1
 390.313131313 137.133333333 419.994132714 39 519 39 c 3
EndSplineSet
EndChar
StartChar: afii10053
Encoding: 1028 1028 1098
Width: 726
UnlinkRmOvrlpSave: 1
Flags: HW
AnchorPoint: "Top" 433 699 basechar 0
AnchorPoint: "Bottom" 423 -15 basechar 0
LayerCount: 2
Fore
SplineSet
126 368 m 1
 209.361328125 370 417.763671875 370 436 371 c 0
 473 376 478 402 494 446 c 1
 528 439 l 1
 511 375 515 312 526 248 c 1
 490 239 l 1
 470 310 477 323 436 327 c 0
 378.689453125 332 247.133789062 331 126 332 c 1
 126 368 l 1
EndSplineSet
Refer: 28 67 N 1 0 0 1 0 0 2
Position2: "cpsp-1" dx=0 dy=0 dh=50 dv=100
EndChar
StartChar: afii10058
Encoding: 1033 1033 1272
Width: 928
Flags: HW
AnchorPoint: "Top" 402 699 basechar 0
LayerCount: 2
Fore
SplineSet
616 349 m 0
 499 349 l 1
 500 251 500.405273438 155.012695312 502 96 c 0
 503 59 507.606445312 44.9228515625 534 41 c 0
 547.45703125 39 608.012695312 34 643 34 c 3
 722.505859375 34 783 83 783 178 c 3
 783 262 734.810546875 349 616 349 c 0
214 694 m 1
 241.11921875 688.213867188 267.065136622 685.42975968 293 685 c 0
 350.291800259 684 413.98725042 683.529296875 437.505859375 683.529296875 c 3
 480.064453125 683.529296875 527.725585938 686.141601562 582 692 c 1
 584 649 l 1
 539.33984375 647 508.999023438 651.977539062 507 616 c 0
 501.870117188 523.665039062 501 379 501 379 c 1
 572.017578125 379 634.251953125 379.70703125 693 371.883789062 c 0
 808.134765625 356.551757812 873 273.93359375 873 181 c 3
 873 70 779.59765625 -4 634 -4 c 3
 571.724609375 -4 512.974609375 2 446 2 c 3
 387 2 342 -2 335 -2 c 1
 332 34 l 1
 379 36 416 35.9462890625 416 73 c 0
 416 78 419 176 419 292 c 3
 419 462.579101562 417.669921875 530.948242188 415 616 c 0
 414.435546875 633.98046875 399 643 388 643 c 3
 355.314941406 643 328.663574219 643.643554688 292 637 c 0
 276.86328125 633.102539062 257.204101562 618.301757812 253.963867188 592 c 0
 247.586770434 509.276192233 234.427453912 348.218158337 223 230 c 0
 215.527068143 152.691769463 196.94899167 80.6436137915 157 43 c 0
 124.762695312 12.623046875 93.9482421875 -9 45 -9 c 3
 21.9716796875 -9 -14.009765625 2 -32 24 c 1
 -30.775390625 55.640625 -32 55.640625 28 99 c 1
 56.1669921875 85.7138671875 73.0302734375 68 106 68 c 3
 153.660677601 68 173.456086307 157.421130283 180.265625 224.524414062 c 0
 200.194744231 415.637302405 213.51542921 635.242407576 214 694 c 1
EndSplineSet
Position2: "cpsp-1" dx=0 dy=0 dh=50 dv=100
EndChar
StartChar: afii10018
Encoding: 1041 1041 1271
Width: 599
Flags: HW
LayerCount: 2
Fore
SplineSet
327 349 m 0
 210 349 l 1
 211 251 211.405071907 155.012339425 213 96 c 0
 214 59 218.834844074 46.2330311851 245 41 c 0
 258.456790124 39 319.012345679 34 354 34 c 3
 433.50617284 34 494 83 494 178 c 3
 494 262 445.810945274 349 327 349 c 0
126 613 m 0
 125 640 111 640 38 654 c 1
 43 685 l 1
 223.294 675 489.658 685 496 700 c 1
 530 680 514 667 509 534 c 1
 478 531 l 1
 467 567 471.194704085 614.658655976 435 625 c 0
 384.085714286 643 302.554786298 650.012863436 237 641 c 0
 219 639 215.889176039 622.005814782 215 604 c 0
 211 523 212 379 212 379 c 1
 283.017761066 379 344.964501609 377.118798728 404 371.883789062 c 0
 519.134450796 356.551448525 584 273.933306029 584 181 c 3
 584 70 490.597701149 -4 345 -4 c 3
 282.725 -4 223.975 2 157 2 c 3
 98 2 53 -2 46 -2 c 1
 43 34 l 1
 90 36 127 35.9459853727 127 73 c 0
 127 78 130 176 130 292 c 3
 130 461 129.116900463 528.843687512 126 613 c 0
EndSplineSet
Position2: "cpsp-1" dx=0 dy=0 dh=50 dv=100
EndChar
StartChar: afii10072
Encoding: 1078 1078 1247
Width: 628
Flags: HW
AnchorPoint: "Top" 316 465 basechar 0
AnchorPoint: "Bottom" 314 -15 basechar 0
LayerCount: 2
Fore
SplineSet
282.430664062 321.732421875 m 0
 274.446825823 365.950195312 270.025573874 366.713867188 230.0546875 375.8515625 c 1
 233.791015625 401.44921875 l 1
 280.227539062 394.21484375 351.419921875 396.0234375 396.961914062 401.944335938 c 1
 398.94140625 375.3671875 l 1
 365.49011458 371.497070312 354.068560161 373.231445312 348.408203125 332.755859375 c 0
 341.695229491 285.932617188 344.297658942 264.163085938 342.432617188 211 c 1
 375.111328125 243.142578125 423.201171875 289.4296875 453.927734375 328 c 0
 459.291015625 334.732421875 466.935546875 348 466.935546875 355 c 0
 466.935546875 373 451.1953125 372 444.63671875 374 c 1
 446.495117188 401 l 1
 467.907226562 399 496.731445312 399 518.966796875 399 c 0
 539.124023438 399 565.388671875 399 584.935546875 403 c 1
 586.79296875 373 l 1
 558.358398438 365.731445312 520.728515625 342.739257812 496.66796875 319 c 2
 413.510742188 236.952148438 l 1
 496.951171875 173.634765625 549.703125 9.2509765625 609 7.8994140625 c 1
 604.447265625 -18 l 1
 493.662109375 -45.3388671875 420.97265625 174.952148438 353.58203125 185 c 1
 344.291015625 177 l 1
 344.291015625 124.724609375 348.464266846 74.205078125 351.865234375 54 c 0
 354.009368548 39 363.249538992 37.15234375 374.376953125 33 c 0
 383.668945312 29 392.959960938 28 405.967773438 27 c 1
 401.322265625 -7 l 1
 369.731445312 -1 352.078125 4 313.0546875 4 c 0
 285.180664062 4 251.732421875 -3 223.858398438 -5 c 1
 222 28 l 1
 232.220703125 29 242.666992188 30.0302734375 251.732421875 33 c 0
 270.946224397 40 276.219637455 48.0576171875 278.463867188 76 c 0
 280.828111401 110.776247769 282.875661367 141.079908966 283.972682148 176.781777245 c 0
 280.732357303 179.45238137 277.599307891 182.260717864 274.41796875 185 c 1
 207.02734375 174.952148438 134.337890625 -45.3388671875 23.5537109375 -18 c 1
 19 7.8994140625 l 1
 78.296875 9.2509765625 131.048828125 173.634765625 214.489257812 236.952148438 c 1
 131.33203125 319 l 2
 107.271484375 342.739257812 69.6416015625 365.731445312 41.20703125 373 c 1
 43.0654296875 403 l 1
 62.6103515625 399 88.8759765625 399 109.033203125 399 c 0
 131.268554688 399 160.092773438 399 181.504882812 401 c 1
 183.36328125 374 l 1
 176.805664062 372 161.063476562 373 161.063476562 355 c 0
 161.063476562 348 168.708984375 334.732421875 174.071289062 328 c 0
 204.528148774 289.76945396 252.041811429 243.957466989 284.700190446 211.852711205 c 1
 284.78283762 219.257677826 284.826171875 226.952565833 284.826171875 235 c 0
 284.826171875 251.155273438 284.149359622 302.49609375 282.430664062 321.732421875 c 0
EndSplineSet
EndChar
StartChar: afii10090
Encoding: 1096 1096 1238
Width: 640
Flags: HW
LayerCount: 2
Fore
SplineSet
498.540039062 48.2890625 m 0
 507.92058131 144.608724984 508.409625709 227.992844498 503.5703125 336.55859375 c 0
 502.320251623 371.477539062 484.137337772 370.640625 466.134765625 379.387695312 c 1
 469.336914062 401.794921875 l 1
 516.356016558 392.094726562 563.416219668 392.17578125 613.818359375 405.826171875 c 1
 618 381.611328125 l 1
 592.495117188 374.231445312 584.260220071 372.214321745 581.387695312 346.34375 c 0
 571.643554688 258.5859375 570.265650583 78.2035587135 577.073242188 48.5888671875 c 0
 583.848632812 19.1142578125 600.6640625 18.0927734375 617.08984375 15.0908203125 c 1
 617.08984375 15.0908203125 613.967773438 -1.025390625 614.463867188 -7.9599609375 c 1
 593.778061513 -3.41673363765 567.610866511 -0.7900390625 540.53515625 -0.7900390625 c 0
 512.22011681 -0.7900390625 126.663533314 -0.933183033591 95.3340124331 -0.933183033591 c 0
 69.3145650793 -0.933183033591 44.4993085456 -3.08054013831 23.25390625 -7.798828125 c 1
 23.25390625 -7.798828125 19.728515625 10.541015625 18.73828125 19.45703125 c 1
 37.7119140625 24.7314453125 61.1425408197 23.7436003003 64.1923828125 53.2841796875 c 0
 74.310546875 151.288085938 72.3848129111 330.850955352 68.603515625 349.920898438 c 0
 63.859375 373.846679688 43.5869140625 375.33203125 21.779296875 378.489257812 c 1
 23.6689453125 403.361328125 l 1
 78.5950895381 398.09375 123.414815877 393.48046875 182.388671875 401.137695312 c 1
 183.782226562 376.922851562 l 1
 173.454111469 373.938476562 151.658528329 372.745433779 149.208984375 360.094726562 c 0
 134.125921449 298.694623 139.140725881 125.352517184 141.74609375 46.671875 c 0
 142.7315742 34.5187000354 176.400422463 28.572265625 211.083007812 28.572265625 c 3
 246.792755063 28.572265625 283.582519031 35.2452844175 286.540039062 48.2890625 c 0
 295.92058131 144.608724984 296.409625709 227.992844498 291.5703125 336.55859375 c 0
 290.320251623 371.477539062 272.137337772 370.640625 254.134765625 379.387695312 c 1
 257.336914062 401.794921875 l 1
 301.101681554 392.094726562 344.904704961 392.17578125 391.818359375 405.826171875 c 1
 396 381.611328125 l 1
 377.46132241 374.231445312 371.475641011 372.214321745 369.387695312 346.34375 c 0
 359.643554687 257.112278837 358.265650582 73.7008585604 365.073242188 43.5888671875 c 0
 371.541968933 32.964907319 400.220276045 28.0908203125 429.39453125 28.0908203125 c 3
 462.19264791 28.0908203125 495.620473257 35.3120500736 498.540039062 48.2890625 c 0
EndSplineSet
EndChar
StartChar: afii10106
Encoding: 1113 1113 1232
Width: 625
Flags: HW
LayerCount: 2
Fore
SplineSet
443 214 m 0
 423.985074627 215 394 215 394 215 c 1
 394 160.463768116 394.787514335 106.94959863 396 73 c 0
 397 45 400.852908824 37.9290803343 414 32 c 0
 418.434782609 30 453.913043478 25 465 25 c 3
 511.386666667 25 536 60.5813953488 536 115 c 1
 536 165 507.409354378 210.612694864 443 214 c 0
327.431640625 203.905273438 m 3
 327.431640625 248.683116478 324.284076647 296.550303831 320.799804688 348.799804688 c 0
 320.099609375 359.299804688 310.4296875 369.099609375 303.299804688 369.099609375 c 3
 283.484375 369.099609375 267.185892239 370.587862913 245.099609375 364.900390625 c 0
 234.50390625 362.171875 220.563063801 351.832794235 218.474609375 333.400390625 c 0
 214.010742188 294.002929688 202.272066617 217.617885517 196.799804688 161 c 0
 191.569335938 106.883789062 179.362155417 55.57764841 150.599609375 30.099609375 c 0
 126.594726562 8.8359375 103.649414062 -6.2998046875 67.2001953125 -6.2998046875 c 3
 51.080078125 -6.2998046875 25.8935546875 1.400390625 13.2998046875 16.7998046875 c 1
 14.1572265625 51.6044921875 13.2998046875 51.6044921875 55.2998046875 99.2998046875 c 1
 75.0166015625 90 86.8212890625 77.599609375 109.900390625 77.599609375 c 3
 143.262695312 77.599609375 157.257023236 122.908963495 161.885742188 157.166992188 c 0
 175.8359375 260.415039062 185.161132812 379.056640625 185.5 410.799804688 c 1
 204.483398438 406.75 222.648447778 404.9193904 240.799804688 404.5 c 0
 271.104492188 403.799804688 333.030273438 403.470703125 341.954101562 403.470703125 c 3
 368.998046875 403.470703125 374.040039062 403.299804688 452.200195312 409.400390625 c 1
 453.599609375 373.299804688 l 1
 424.715820312 371.900390625 407.817481029 378.691832361 403.799804688 350.200195312 c 0
 399.446603318 319.329158706 396.367509267 280.889377852 395 234 c 1
 441.580152672 234 476.971901709 237.439793985 508 231 c 0
 565.818181818 219 614 177 614 121 c 1
 614 46.6 555.589403974 -3 467 -3 c 3
 433.318181818 -3 390.136363636 1 353 1 c 3
 311 1 270.2 -5 263 -6 c 1
 260 26 l 1
 276.085106383 26.8787878788 323 29.5151515152 323 55 c 0
 323 57.6354915653 327.431640625 122.205034915 327.431640625 203.905273438 c 3
EndSplineSet
EndChar
StartChar: afii10107
Encoding: 1114 1114 1233
Width: 676
UnlinkRmOvrlpSave: 1
Flags: HW
LayerCount: 2
Fore
SplineSet
496 382 m 1
 490 382 465 380 454 377 c 0
 441 373 441 359 440 349 c 0
 435 287 435 227.254449728 434 225 c 1
 483.877862595 225 521.748091603 228 555 222 c 0
 615 210.981818182 665 172.418181818 665 121 c 1
 665 46.599609375 605 -3 514 -3 c 3
 477.954545455 -3 431.742424242 1 392 1 c 3
 357 1 323 -2 317 -2 c 1
 315 22 l 1
 327 23 362 26 362 55 c 0
 362 57.0703125 366 107.805664062 366 172 c 1
 366 258.658203125 361 333.96875 361 335 c 0
 360 360 360 376 348 379 c 0
 343 380 319 383 314 384 c 1
 318 409 l 1
 326 409 358 403 390 403 c 3
 422 403 465 405 495 409 c 1
 496 382 l 1
490 197 m 0
 467.880597015 198 433 198 433 198 c 1
 433 149.992840834 434 102.890893211 435 73 c 0
 436 45 441 40 453 32 c 0
 458.130434783 30 499.173913043 25 512 25 c 3
 561 25 587 60.5810546875 587 115 c 1
 587 156.414141414 557 192.03030303 490 197 c 0
401 195 m 1
 151 195 l 1
 150 146.94725817 150 97.8732257872 153 58 c 0
 154 26 183 27 201 21 c 1
 201 21 198 4 198 -3 c 1
 143 7 80 8 34 -2 c 1
 34 -2 31 16 30 25 c 1
 49 30 72 30 75 59 c 0
 85 157 87 338 80 356 c 0
 75 380 55 381 33 384 c 1
 35 409 l 1
 93 404 140 399 203 407 c 1
 205 383 l 1
 192 380 163 379 160 366 c 1
 155 346.410791999 155 278.828446151 153 223 c 1
 401 224 l 1
 401 195 l 1
EndSplineSet
EndChar
StartChar: uni04AF
Encoding: 1199 1199 1383
Width: 460
Flags: HW
LayerCount: 2
Fore
SplineSet
189.7421875 371.333984375 m 1
 201.68539595 371.556999412 171.128486283 367.488560244 157.30078125 364.916992188 c 0
 145.331101509 362.690965092 147.607717669 357.463981371 151.168945312 343.094726562 c 0
 202.826824832 167.303074186 245.56059614 80.6830069118 249.486328125 72.837890625 c 1
 279.746228926 141 312.33352754 217.772953409 343.947265625 320.047851562 c 0
 347.55505024 331.719543251 352.810682751 344.053075519 343.518554688 351.513671875 c 0
 330.964502249 361.593248613 298.499675636 366.872752943 275.504882812 368.232421875 c 1
 276.818359375 401.921875 l 1
 311 389 401 381 446 401.587890625 c 1
 446 365.513671875 l 1
 418.512361712 362.96067139 409.191537458 353.088882759 392.396484375 324.430664062 c 0
 356.260671742 253.022150899 301.54773712 129.130159042 265.890625 25.708984375 c 1
 265.314622807 -28.3857686345 263.355915019 -93.0764354062 274.09765625 -270.499023438 c 0
 276.015673824 -302.179142568 288.385787166 -303.0586431 333.783203125 -309.310546875 c 1
 330.580078125 -337.142578125 l 1
 271.655162441 -328.836901519 199.320265945 -325.218788641 139.485351562 -340.678710938 c 1
 132.08984375 -313.665039062 l 1
 176.9477749 -304.26863286 196.657354812 -297.26814996 198.260742188 -259.220703125 c 0
 198.787638441 -246.717762468 196.843021338 -6.18617226095 196.118164062 -0.2490234375 c 1
 194.972274598 10.0258702283 139.770741023 177.033978488 67.1982421875 333.014648438 c 0
 55.3761057159 363.089769568 39.2658363324 359.580776334 7.5654296875 368.715820312 c 1
 10.03125 397.416992188 l 1
 57.609019754 387.553996101 151.922474842 387.763352827 186.540039062 400.426757812 c 1
 189.7421875 371.333984375 l 1
EndSplineSet
EndChar
StartChar: afii57665
Encoding: 1489 1489 2393
Width: 500
UnlinkRmOvrlpSave: 1
Flags: HW
AnchorPoint: "HbTopRight" 417 638 basechar 0
AnchorPoint: "HbBottomLeft" 27 0 basechar 0
AnchorPoint: "HbBottomRight" 414 0 basechar 0
AnchorPoint: "HbTopLeft" 142.988 638.023 basechar 0
AnchorPoint: "HbBottom" 221.51 0 basechar 0
AnchorPoint: "HbMiddle" 243.95 292.52 basechar 0
AnchorPoint: "HbTop" 300.42 638.023 basechar 0
LayerCount: 2
Fore
SplineSet
350.1328125 567.530273438 m 0
 424.015144682 528.139120225 450.981445312 346.047851562 407.310546875 161.778320312 c 0
 403.423828125 143.41796875 434.233398438 146.135742188 455.303710938 141.258789062 c 1
 422.405273438 -0.75390625 l 1
 286.981022788 2.44861350262 120.797379516 -0.0018317233492 60.9619140625 -0.701171875 c 1
 19.6318359375 0.857421875 l 1
 50.6953125 140.591796875 l 1
 78.679849569 150.984374999 56.7030125518 148.506835937 351.598632812 148.374023438 c 1
 383.146312791 293.553809858 383.093966443 406.923350115 311.293945312 424.712890625 c 0
 242.125332235 447.337981367 147.887734534 428.920591941 114.061523438 454.823242188 c 1
 163.830078125 601.1015625 l 1
 225.536900044 591.617598215 322.993288591 582 350.1328125 567.530273438 c 0
EndSplineSet
EndChar
StartChar: afii57677
Encoding: 1501 1501 2405
Width: 597
UnlinkRmOvrlpSave: 1
Flags: HW
AnchorPoint: "HbBottomLeft" 83.6201 0 basechar 0
AnchorPoint: "HbBottomRight" 458.16 0 basechar 0
AnchorPoint: "HbTop" 329 638.023 basechar 0
AnchorPoint: "HbTopLeft" 141.729 638.023 basechar 0
AnchorPoint: "HbBottom" 271.36 0 basechar 0
AnchorPoint: "HbMiddle" 310.19 292.52 basechar 0
AnchorPoint: "HbTopRight" 499.68 638.023 basechar 0
LayerCount: 2
Fore
SplineSet
464.690429688 0 m 1
 124.174804688 -1.1953125 l 1
 141.016601562 142.337890625 l 1
 499.490234374 142.337890625 l 1
 464.690429688 0 l 1
183.323242188 441.681640625 m 1
 157 402 164.249687344 224.288978283 160.0078125 109.831054688 c 1
 124.174804688 -1.1953125 l 1
 62.2841796875 17.6337890625 l 1
 110.063476562 484.90625 l 1
 171.521484376 592.366210938 l 1
 214.675713304 586.886909223 228.442531877 587.635742188 301.394531249 587.635742188 c 3
 410.640885686 587.635742188 471.209193281 574.205078124 497.6328125 543.739257812 c 1
 526.594726562 503.119690942 543.680861182 460.14125834 543.498046875 418.405273438 c 0
 539.259776814 315.571615369 535.113045866 220.294289627 516.172851562 139.8046875 c 1
 495.357028874 91.086449998 484.394601297 43.0972454044 464.690429688 0 c 1
 400.451171875 7.1279296875 l 1
 441.094406046 166.309013723 491.030968461 340.03232256 450.12890625 393.142578125 c 1
 421.988434462 432.385742188 408.711916094 437.975585938 220.776367187 437.975585938 c 3
 209.749023438 437.975585938 196.496093751 440.005859375 183.323242188 441.681640625 c 1
EndSplineSet
EndChar
StartChar: afii57687
Encoding: 1511 1511 2415
Width: 545
UnlinkRmOvrlpSave: 1
Flags: HW
AnchorPoint: "HbBottom" 281 0 basechar 0
AnchorPoint: "HbTopRight" 461 638 basechar 0
AnchorPoint: "HbBottomLeft" 52 0 basechar 0
AnchorPoint: "HbBottomRight" 390 0 basechar 0
AnchorPoint: "HbMiddle" 293.906 316.52 basechar 0
AnchorPoint: "HbTopLeft" 128.057 638.023 basechar 0
AnchorPoint: "HbTop" 296.788 638.023 basechar 0
LayerCount: 2
Back
SplineSet
121.216796875 326.596679688 m 1xc0
 175.098632812 308.134765625 l 1
 155.639648438 240.856445312 l 1xc0
 149.775390625 189.023039288 162.193359375 34.8468055596 164.815429688 -64.4814453125 c 1
 112.501953125 -174.505859375 l 1
 68.162109375 -161.36328125 l 1xa0
 70.8505859375 206.659179688 l 1
 121.216796875 326.596679688 l 1xc0
122.734375 575.953125 m 1
 178.481401646 572.130859375 370.74270482 585.368164062 445.502929688 566.69921875 c 1
 475.500900341 476.730533694 494.0703125 356.772286951 494.0703125 279.842773438 c 0
 494.0703125 271.478515625 494.562826277 262.955907097 492.759765625 255.946289062 c 0
 477.65441909 197.222413428 371.919524087 62.6910015448 299.575195312 -30.2001953125 c 1
 246.478515625 -13.1162109375 l 1
 247.7890625 156.405273438 l 1
 324.311500827 191.716520928 380.040321162 215.993365031 428.282226562 268.224609375 c 1
 423.850679066 329.810916663 410.552734375 374.601505204 392.823242188 422.192382812 c 1
 299.888996936 430.556640625 200.250724013 432.9453125 149.849609375 432.9453125 c 3
 113.514350854 432.9453125 56.652904252 438.27734375 38.0126953125 465.823242188 c 1
 48.2744140625 554.181640625 l 1
 48.6658811872 567.862721055 48.9922894613 588.315989883 48.8505859375 610.997070312 c 1
 -0.892578125 675.879882812 l 1
 60.2431640625 736.46484375 l 1
 115.982421875 729.294921875 l 1
 122.734375 575.953125 l 1
EndSplineSet
Fore
SplineSet
256.483398438 580.635742188 m 3
 335.471884341 580.635742188 432.384667869 577 463.092773438 539.65625 c 0
 506.392487147 487 506.863395144 353.554213463 499.635742188 284.803710938 c 0
 498.630859375 275.245117188 495.44140625 266.8828125 494.5625 258.518554688 c 1
 475.844726562 202.490234375 366.31640625 71.1650390625 292.57421875 -20.1396484375 c 1
 240.3984375 -2 l 1
 259.31640625 165.521484375 l 1
 332.42578125 200.44921875 385.8046875 225.9375 434.247070312 277.856445312 c 1
 437.620317968 322.947786825 430.318222598 361.733034165 395 393 c 0
 357 424.906818347 284.813386097 429.794921875 191.21484375 429.794921875 c 3
 148.682556896 429.794921875 82.9094930648 431.086252752 64.7763671875 437.756835938 c 1
 118.237304688 587.974609375 l 1
 167.271698501 582.624957622 192.646732075 580.635742188 256.483398438 580.635742188 c 3
148.895507812 312.596679688 m 1
 201.02734375 295.1953125 l 1
 173.00390625 226.06640625 l 1
 164.857421875 180.58203125 159.3671875 30.564453125 153.092773438 -62 c 1
 88.2158203125 -175 l 1
 45.6767578125 -161.349609375 l 1
 86.0166015625 196.869140625 l 1
 148.895507812 312.596679688 l 1
EndSplineSet
EndChar
StartChar: afii57688
Encoding: 1512 1512 2416
Width: 548
UnlinkRmOvrlpSave: 1
Flags: HW
AnchorPoint: "HbTopRight" 450 638 basechar 0
AnchorPoint: "HbBottomLeft" 130 0 basechar 0
AnchorPoint: "HbBottomRight" 442 0 basechar 0
AnchorPoint: "HbTopLeft" 105.934 638.023 basechar 0
AnchorPoint: "HbBottom" 251.677 0 basechar 0
AnchorPoint: "HbMiddle" 258.691 292.52 basechar 0
AnchorPoint: "HbTop" 287.096 638.023 basechar 0
LayerCount: 2
Fore
SplineSet
179.958007812 584.2578125 m 0
 332.291015625 583.0625 396.678710938 577.662109375 429.901367188 560.361328125 c 0
 459.728515625 544.829101562 532.48828125 430.016601562 494.90234375 193.557617188 c 0
 489.430664062 159.13671875 486.555664062 126.626953125 481.140625 100.051757812 c 1
 463.306640625 61.341796875 443.612304688 21.298828125 428.919921875 -12.0712890625 c 1
 375.111328125 -0.779296875 l 1
 396.84765625 83.8310546875 421.934570312 162.653320312 429.091796875 230.750976562 c 0
 437.931640625 314.85546875 434.064453125 375.973632812 367.66796875 411.900390625 c 0
 341.069335938 426.29296875 268.162109375 433.40625 161.131835938 433.40625 c 3
 121.647460938 433.40625 75 434 45.375 440.823242188 c 1
 98.76171875 587.1015625 l 1
 125.820828987 586.147326383 152.852895065 585.166046107 179.958007812 584.2578125 c 0
EndSplineSet
EndChar
StartChar: uni1E9E
Encoding: 7838 7838 827
Width: 864
Flags: HW
LayerCount: 2
Back
SplineSet
443.069335938 615.91796875 m 1
 440.682617188 615.881835938 438.327148438 615.76953125 436 615.76953125 c 3
 338.337890625 615.76953125 293.165039062 587.19921875 258 551 c 0
 230.409179688 522.59765625 227 476 225 427 c 0
 219.439174469 290.759774482 222 92.9090909091 222 77 c 0
 222 61 237 69 285 63 c 1
 277 -6 l 1
 216.954394 2.00608079998 104.980929534 2.81802313115 50 -7 c 1
 43 66 l 1
 95 71 106 71 109 83 c 0
 112.816021689 98.2640867547 111 411.201634877 113 448 c 0
 116.696749011 516.017159943 131 576 173 616 c 0
 222.691904517 663.32562335 303 690 419 690 c 0
 514.416666667 690 595.771929825 654.849230769 648 634 c 9
 634 566 l 1
 528 594 474 540 474 509 c 0
 474 440 533.052348201 426.11843 687 358 c 0
 800 308 821 228 821 164 c 0
 821 87.8453608247 764 -14 586 -14 c 0
 542 -14 486 5.55111512313e-17 436 25 c 1
 437 17 431 13 427 -1 c 1
 364 3 l 1
 367 74 363 74 343 181 c 1
 410 191 l 1
 441 143 453.833984375 126.38671875 464 115 c 0
 489 87 554 59 603 59 c 0
 699 59 726 106.373831776 726 154 c 0
 726 232 605.850079537 276.152350653 517 310 c 0
 496 318 377 361 377 486 c 0
 377 528.830445155 388.892578125 585.00390625 443.069335938 615.91796875 c 1
EndSplineSet
Fore
SplineSet
443.069335938 615.91796875 m 1
 440.682617188 615.881835938 438.327148438 615.76953125 436 615.76953125 c 3
 352.959262029 615.76953125 299.44436026 606.123369193 266.999999578 571.533182468 c 0
 240.308802751 543.076666058 227.878059611 497.738138546 225 427 c 0
 219.456885976 290.759052717 222 92.9090909091 222 77 c 0
 222 61 237 69 285 63 c 1
 277 -6 l 1
 216.954394 2.00608079998 104.980929534 2.81802313115 50 -7 c 1
 43 66 l 1
 95 71 106 71 109 83 c 0
 112.816021689 98.2640867547 111 411.201634877 113 448 c 0
 117.448864244 529.855465427 141.488568531 588.070772572 186 626.857533671 c 0
 236.686878845 671.025510204 313.919963776 690 419 690 c 0
 514.416666667 690 595.771929825 654.849230769 648 634 c 9
 634 566 l 1
 528 594 474 540 474 509 c 0
 474 440 533.052348201 426.11843 687 358 c 0
 800 308 821 228 821 164 c 0
 821 87.8453608247 764 -14 586 -14 c 0
 542 -14 486 5.55111512313e-17 436 25 c 1
 437 17 431 13 427 -1 c 1
 364 3 l 1
 367 74 363 74 343 181 c 1
 410 191 l 1
 441 143 453.833984375 126.38671875 464 115 c 0
 489 87 554 59 603 59 c 0
 699 59 726 106.373831776 726 154 c 0
 726 232 605.850079537 276.152350653 517 310 c 0
 496 318 377 361 377 486 c 0
 377 528.830445155 388.892578125 585.00390625 443.069335938 615.91796875 c 1
EndSplineSet
Position2: "cpsp-1" dx=0 dy=0 dh=50 dv=100
EndChar
StartChar: uni1EFC
Encoding: 7932 7932 1485
Width: 567
Flags: HW
LayerCount: 2
Fore
SplineSet
338.923828125 705 m 1
 338.923828125 705 358.102035464 667.294077401 367.336914062 655.556640625 c 1
 246.981059523 574.278793912 141.478515625 462.604517918 141.478515625 293.987304688 c 3
 141.478515625 184.102221755 198.448242188 62.25 325.239257812 62.25 c 3
 383.736328125 62.25 427.130859375 107.006639892 427.130859375 158.150390625 c 3
 427.130859375 256.055794907 375.93737283 326.0625 310.603515625 326.0625 c 3
 304.784179688 326.0625 301.250976562 325.194335938 297 324 c 1
 281 382 l 1
 291.409793824 393.609950464 317.343878347 401.737304688 349.239257812 401.737304688 c 3
 439.321358925 401.737304688 527 306.102539062 527 197.974609375 c 3
 527 85.0830078125 401.732397012 -10 284.40234375 -10 c 3
 114.581455132 -10 32 144.76171875 32 252.799804688 c 3
 32 469.739257812 193.709166946 629.841796875 338.923828125 705 c 1
EndSplineSet
EndChar
StartChar: guilsinglleft
Encoding: 8249 8249 1282
Width: 269
Flags: HW
LayerCount: 2
Fore
SplineSet
57.1259765625 259 m 1
 83.361328125 294.853515625 106.045898438 398.31640625 245.689453125 511 c 1
 282.887695312 479 l 1
 198.165039062 401.545898438 162.802734375 360.512695312 139.099609375 249 c 0
 115.396484375 137.487304688 133.31640625 96.4541015625 185.112304688 19 c 1
 134.310546875 -13 l 1
 42.5693359375 99.68359375 63.869140625 203.146484375 52.8740234375 239 c 1
 57.1259765625 259 l 1
EndSplineSet
Position2: "'case' vertical ajustments for all-caps-1" dx=0 dy=125 dh=0 dv=0
Position2: "cpsp-1" dx=0 dy=0 dh=50 dv=100
EndChar
StartChar: uni2053
Encoding: 8275 8275 1438
Width: 461
Flags: HW
LayerCount: 2
Fore
SplineSet
18.1337890625 212.353515625 m 1
 59.5590081072 260.722308685 135.882304415 305.837890625 146.349609375 305.837890625 c 3
 188.410171478 305.837890625 277.513514783 257.052734375 318.451171875 257.052734375 c 3
 335.702865409 257.052734375 384.016232321 283.514671544 409.108398438 312.82421875 c 1
 443 269.5390625 l 1
 406.907131961 223.137354023 340.203171967 167.052734375 322.063476562 167.052734375 c 3
 281.851962863 167.052734375 179.503476034 216.391601562 141.46484375 216.391601562 c 3
 120.68810301 216.391601562 72.1480112866 185.770125168 50.16796875 166.64453125 c 1
 18.1337890625 212.353515625 l 1
EndSplineSet
EndChar
StartChar: Euro
Encoding: 8364 8364 1289
Width: 503
UnlinkRmOvrlpSave: 1
Flags: HW
LayerCount: 2
Fore
SplineSet
63 315 m 1
 346 315 l 1
 346 301 l 1
 300 269 l 1
 15 269 l 1
 15 279 l 1
 63 315 l 1
63 430 m 1
 394 430 l 1
 394 416 l 1
 348 384 l 1
 15 384 l 1
 15 394 l 1
 63 430 l 1
74 302 m 3
 74 425.150878906 106.315429688 524.673177083 178 592 c 0
 227.2734375 635.977539062 260.391601562 671 322 671 c 3
 383 671 412 645.8984375 469 630 c 1
 441.892578125 602.372070312 427.107421875 585.627929688 400 558 c 1
 383.174804688 585.6484375 361.092773438 624 298 624 c 3
 263.052734375 624 242.447265625 615.734375 215 593 c 0
 151.012695312 541.840277778 142 432.763888889 142 315 c 3
 142 196.93947451 197.951171875 45 294 45 c 3
 364.674804688 45 414.05078125 117.826171875 446 162 c 1
 452.666992188 156.75 457.333007812 152.25 464 147 c 1
 424.2109375 88 367.368164062 -6 266 -6 c 3
 131.056640625 -6 74 186.381422776 74 302 c 3
EndSplineSet
EndChar
StartChar: afii61248
Encoding: 8453 8453 1290
Width: 803
Flags: HW
LayerCount: 2
Fore
SplineSet
591 363 m 3
 705 363 771 267 771 181 c 3
 771 86 700 -8 591 -8 c 3
 494 -8 409 69 409 171 c 3
 409 297 518 363 591 363 c 3
573 323 m 3
 517.772727273 323 483 258.061538462 483 189 c 3
 483 110.006369427 538.873015873 30 611 30 c 3
 667.30952381 30 697 102.03649635 697 169 c 3
 697 262.426666667 630.93442623 323 573 323 c 3
283 589 m 1
 268 603 222 638 190 638 c 3
 138.37804878 638 107 584 107 506 c 3
 107 428 156.411764706 366 227 366 c 3
 257 366 279 381 304 402 c 1
 328 367 l 1
 294 344 253 320 204 320 c 3
 161 320 36 351 36 490 c 3
 36 599 121 686 221 686 c 3
 267 686 313 664 332 648 c 1
 324 610 328 612 283 589 c 1
EndSplineSet
Refer: 911 8260 N 1 0 0 1 160 81 2
EndChar
StartChar: afii61289
Encoding: 8467 8467 1291
Width: 445
UnlinkRmOvrlpSave: 1
Flags: HW
LayerCount: 2
Fore
SplineSet
399 701 m 3
 362.084960938 701 337.483398438 635.404296875 304 532 c 0
 299.466796875 518 283.837890625 462.815429688 270 413 c 0
 243.638671875 318.099609375 205.334960938 163.696289062 201 90 c 0
 200 73 200 54 217 53 c 1
 232 52 270 80 292 101 c 1
 313 81 l 1
 287 44 215 -10 174 -10 c 3
 125.345703125 -10 121.963867188 11.48828125 119 37 c 0
 117.25 52.0634765625 120.700195312 69.8564453125 126 96 c 0
 141 170 182.435546875 310.6875 208 401 c 0
 221.333007812 448.103515625 236.260742188 510.791015625 240 527 c 0
 270.682617188 660 307.610351562 686.6328125 369 735 c 0
 389.044921875 750.791992188 417.782226562 766 435 766 c 3
 464.766601562 766 482 724.46875 482 697 c 3
 482 517.135742188 202.44140625 232.830078125 24 -10 c 1
 0 13 l 1
 196.947265625 279.6796875 416 486.96484375 416 677 c 3
 416 684.783203125 406.961914062 701 399 701 c 3
EndSplineSet
EndChar
StartChar: afii61352
Encoding: 8470 8470 1292
Width: 1092
Flags: HW
LayerCount: 2
Fore
SplineSet
22.4365234375 692 m 1
 61.4365234375 688 113.424804688 684 154.436523438 684 c 0
 169.436523438 684 171.235351562 680.715820312 177.436523438 673 c 0
 316.782226562 499.627929688 461.07421875 333.961914062 614.436523438 176 c 1
 623.436523438 296.780273438 625.481445312 417.5625 624.436523438 545 c 0
 623.436523438 667 571.436523438 656 512.436523438 663 c 1
 516.436523438 701 l 1
 608.436523438 689.111328125 676.436523438 689.888671875 747.436523438 694 c 1
 752.436523438 655 l 1
 703.436523438 649 682.21484375 651.020507812 678.436523438 609 c 0
 663.436523438 442.189453125 660.436523438 264.596679688 660.436523438 86 c 0
 660.436523438 63 666.436523438 23 672.436523438 0 c 1
 635.436523438 -11 l 1
 619.436523438 34.9658203125 584.576171875 76.6904296875 553.436523438 113 c 0
 428.65625 255.825195312 301.461914062 401.782226562 169.436523438 541 c 1
 160.436523438 154 l 2
 158.122070312 52.4189453125 194.436523438 44.6748046875 285.436523438 35 c 1
 277.436523438 -11 l 1
 185.436523438 9 101.436523438 -2 32.4365234375 -10 c 1
 27.4365234375 34 l 1
 85.4365234375 34 102.629882812 45.0400390625 105.436523438 93 c 0
 114.436523438 246.783203125 117.194335938 409.412109375 113.436523438 571 c 0
 112.436523438 614 77.4365234375 649 20.4365234375 648 c 1
 22.4365234375 692 l 1
EndSplineSet
Refer: 1216 186 N 1 0 0 1 743.437 0 2
EndChar
StartChar: infinity
Encoding: 8734 8734 1306
Width: 710
UnlinkRmOvrlpSave: 1
Flags: HW
LayerCount: 2
Fore
SplineSet
168.526367188 105.936523438 m 3
 314.334047796 105.936523438 374.52825744 362.348632812 532.84765625 362.348632812 c 3
 613.139538337 362.348632812 666.904296875 296.315429688 666.904296875 219.224609375 c 3
 666.904296875 134.610016724 611.80859375 65.2119140625 528.635742188 65.2119140625 c 3
 362.631835938 65.2119140625 288.676741487 306.791032744 162.77734375 309.70703125 c 0
 114.336303308 310.828990561 77.0205078125 262.848969733 77.0205078125 207.325195312 c 3
 77.0205078125 151.364257812 116.732258274 105.936523438 168.526367188 105.936523438 c 3
42.8671875 217.883789062 m 3
 42.8671875 301.290177841 97.205078125 365.767578125 180.959960938 365.767578125 c 3
 355.05859375 365.767578125 438.880859375 120.58203125 553.21484375 120.58203125 c 3
 603.597304998 120.58203125 634.760742188 169.966597849 634.760742188 225.346679688 c 3
 634.760742188 282.682617188 597.31680894 325.771484375 542.63671875 325.771484375 c 3
 399.563472849 325.771484375 340.002073757 69.3759765625 172.668945312 69.3759765625 c 3
 93.013671875 69.3759765625 42.8671875 137.7734375 42.8671875 217.883789062 c 3
EndSplineSet
EndChar
StartChar: female
Encoding: 9792 9792 1526
Width: 560
UnlinkRmOvrlpSave: 1
Flags: HMW
LayerCount: 2
Fore
SplineSet
111 19 m 1
 131 14 l 1
 145.416912499 10.0218636072 217.624327267 8 281.87890625 8 c 3
 342.133953087 8 403.360476934 10.3086357889 430 15 c 1
 451 19 l 1
 451 -62 l 1
 430 -58.123046875 l 1
 403.201260711 -51.2868226956 341.526996602 -47.97265625 281.443359375 -47.97265625 c 3
 214.151483133 -47.97265625 148.726092129 -51.6928273451 130 -58.888671875 c 1
 111 -64 l 1
 111 19 l 1
EndSplineSet
Refer: 1525 9906 N 1 0 0 1 0 0 2
EndChar
StartChar: uni2661
Encoding: 9825 9825 1498
Width: 674
Flags: HW
LayerCount: 2
Fore
SplineSet
93.25390625 498.337890625 m 0
 93.25390625 363.643554688 230.994140625 273.56640625 312.303710938 134.606445312 c 0
 322.810546875 116.647460938 330.921875 100.794921875 337.28515625 87.107421875 c 1
 343.576171875 100.909179688 351.521484375 116.727539062 361.983398438 134.606445312 c 0
 439.943359375 267.844726562 581.033203125 365.30859375 581.033203125 498.337890625 c 0
 581.033203125 561.374023438 543.952148438 615.725585938 488.333007812 615.725585938 c 0
 442.8828125 615.725585938 382.995117188 574.96484375 366.059570312 505.698242188 c 0
 361.3984375 486.633789062 349.151367188 458.16015625 337.165039062 458.16015625 c 0
 325.801757812 458.16015625 312.86328125 486.41796875 308.090820312 505.450195312 c 0
 291.307617188 572.380859375 233.635742188 615.725585938 185.954101562 615.725585938 c 0
 130.333984375 615.725585938 93.25390625 561.374023438 93.25390625 498.337890625 c 0
EndSplineSet
Refer: 1494 9829 N 1 0 0 1 -0.162383 0 2
EndChar
StartChar: uni26A2
Encoding: 9890 9890 1532
Width: 772
UnlinkRmOvrlpSave: 1
Flags: HMW
LayerCount: 2
Back
SplineSet
81 27 m 1
 101 22 l 1
 124.494435139 18.0218636072 242.166816306 16 346.87890625 16 c 3
 445.779559223 16 546.274762623 18.3086357889 590 23 c 1
 611 27 l 1
 611 -54 l 1
 590 -50.123046875 l 1
 546.063822615 -43.2868226956 444.949685164 -39.97265625 346.443359375 -39.97265625 c 3
 236.939475493 -39.97265625 130.47291787 -43.6928273451 100 -50.888671875 c 1
 81 -56 l 1
 81 27 l 1
EndSplineSet
Fore
SplineSet
284 -48.1953125 m 3
 217.573818747 -48.1953125 163.350634095 -53.5874307517 143 -58.888671875 c 1
 124 -64 l 1
 124 19 l 1
 144 14 l 1
 159.75437123 10.8334037446 217.849822298 7.65625 286 7.65625 c 3
 353.382227786 7.65625 423.482900849 7.8203125 490 7.8203125 c 3
 551.133254829 7.8203125 604.295175562 11.4218416957 633 15 c 1
 654 19 l 1
 654 -62 l 1
 633 -58.123046875 l 1
 604.241674665 -53.1488647117 551.005254772 -48.16796875 490 -48.16796875 c 3
 424.416119276 -48.16796875 348.886087314 -48.1953125 284 -48.1953125 c 3
EndSplineSet
Refer: 1525 9906 N 1 0 0 1 0 0 2
Refer: 1525 9906 N 1 0 0 1 212 0 2
EndChar
StartChar: uniE000
Encoding: 57344 57344 2349
Width: 0
Flags: HW
LayerCount: 2
Back
SplineSet
-50.8251953125 0.056640625 m 0
 -44.865234375 28.09765625 -17.2861328125 50.83984375 10.8095703125 50.83984375 c 3
 38.904296875 50.83984375 56.814453125 28.09765625 50.8544921875 0.056640625 c 0
 44.8935546875 -27.9873046875 17.291015625 -50.83984375 -10.802734375 -50.83984375 c 3
 -38.8994140625 -50.83984375 -56.7861328125 -27.9873046875 -50.8251953125 0.056640625 c 0
EndSplineSet
Fore
SplineSet
-50.8251953125 0.056640625 m 0
 -44.865234375 28.09765625 -17.2861328125 50.83984375 10.8095703125 50.83984375 c 3
 38.904296875 50.83984375 56.814453125 28.09765625 50.8544921875 0.056640625 c 0
 44.8935546875 -27.9873046875 17.291015625 -50.83984375 -10.802734375 -50.83984375 c 3
 -38.8994140625 -50.83984375 -56.7861328125 -27.9873046875 -50.8251953125 0.056640625 c 0
EndSplineSet
EndChar
StartChar: uniE002
Encoding: 57346 57346 2351
Width: 0
Flags: HW
LayerCount: 2
Fore
SplineSet
-61.9853515625 0.0693359375 m 0
 -54.716796875 34.265625 -21.083984375 62 13.1796875 62 c 3
 47.44140625 62 69.283203125 34.265625 62.0146484375 0.0693359375 c 0
 54.7451171875 -34.130859375 21.083984375 -62 -13.177734375 -62 c 3
 -47.44140625 -62 -69.2548828125 -34.130859375 -61.9853515625 0.0693359375 c 0
EndSplineSet
EndChar
StartChar: b.pcap
Encoding: 57348 57348 644
Width: 551
Flags: HW
LayerCount: 2
Back
SplineSet
81.2748745397 76.6840497447 m 2
 101.504573614 76.2898003867 118.231609261 75.2911436725 126.904826563 72.7202919132 c 1
 127.38523531 97.5972978005 125.94140625 147.509912739 125.94140625 209.520507812 c 0
 125.94140625 315.691710235 124.600063864 410.476462012 120.217149155 421.586974917 c 1
 105.289675605 422.338887711 86.7096140661 424.101163005 75.4581569032 425.822965157 c 0
 67.8672613214 426.964249242 l 1
 81.7962245011 506.949749144 l 1
 89.13625718 505.731445312 l 0
 121.821190362 500.247403935 113.858419982 496.318359375 167.751953125 496.318359375 c 0
 214.050440903 496.318359375 246.250043485 503.66796875 292.741210938 503.66796875 c 0
 390.56236588 503.66796875 456.68359375 453.400526252 456.68359375 371.892578125 c 0
 456.68359375 327.428232316 442.485558971 285.076646669 406.691039525 263.401535841 c 1
 465.778077787 243.939031139 500.61328125 200.268165766 500.61328125 145.416992188 c 0
 500.61328125 51.2386042087 405.542104808 -2.3564453125 297.151367188 -2.3564453125 c 0
 250.756553795 -2.3564453125 224.651079453 1.021484375 172.754882812 1.021484375 c 0
 150.738944648 1.021484375 137.457265713 0.776017069917 128.113527061 0.373961299638 c 0
 111.369278324 -0.340868605236 106.833052963 -1.59501508154 85.8912538077 -2.9501953125 c 0
 78.4180969913 -3.43251854635 l 1
 73.1172151963 76.832220172 l 1
 81.2748745397 76.6840497447 l 2
304.210867742 285.107103896 m 1
 342.420053529 294.75835436 350.431640625 318.355453626 350.431640625 351.084960938 c 0
 350.431640625 390.998682776 338.505831383 427.672851562 295.415039062 427.672851562 c 0
 273.031212187 427.672851562 239.574392635 425.638533998 228.549466362 424.088344169 c 1
 227.311065511 417.889147845 227.13877974 409.023744742 226.75483588 404.353874746 c 1
 224.457663365 363.53558853 225.909079199 317.119128819 226.889618145 283.742700659 c 1
 287.929531085 283.691538931 288.851711608 283.209681346 304.210867742 285.107103896 c 1
298.500757144 216.227540522 m 0
 277.537967879 216.236110754 251.572085071 213.111009849 226.78667609 212.471361254 c 1
 227.775095934 149.150114591 226.121360152 108.375031604 226.69378311 73.9499603945 c 1
 240.668105933 74.5606534857 282.076821173 75.837890625 314.790039062 75.837890625 c 0
 355.028666556 75.837890625 392.279296875 94.5740689039 392.279296875 151.471679688 c 0
 392.279296875 186.682939065 372.986422223 216.156647705 298.500757144 216.227540522 c 0
EndSplineSet
Fore
SplineSet
37.1953125 79 m 1
 60.3447265625 75 86.7705078125 77 88.9833984375 78 c 0
 96.6826171875 86 101.311523437 136 117.891601563 214 c 0
 139.998046875 318 155.552734374 410 147.890624999 421 c 0
 143.740234374 425 147.528320312 424 147.315429687 423 c 0
 133.890624999 421 117.315429688 423 104.527343749 424 c 1
 135.806640624 510 l 1
 168.745117187 505 161.682617187 500 220.682617187 500 c 3
 251.682617187 500 273.3828125 508 301.3828125 508 c 3
 428.3828125 508 495.140625 441 481.325195313 376 c 0
 470.91015625 327 440.343750001 282 405.369140625 268 c 1
 463.180664063 253 489.403320313 207 477.075195313 149 c 0
 456.880859374 54 352.977539062 -2 242.977539062 -2 c 3
 196.977539062 -2 171.615234374 1 119.615234374 1 c 3
 52.615234375 1 59.19140625 -1 23.7666015625 -3 c 1
 37.1953125 79 l 1
312.131835938 281 m 0
 320.620117187 288 314.572265625 316 318.397460938 334 c 0
 326.26171875 371 316.377929687 428 261.377929687 428 c 3
 258.377929687 428 310.228515625 432 309.953124999 426 c 0
 306.103515625 422 302.977539062 412 302.126953126 408 c 0
 289.774414062 364 281.296874999 310 275.069335938 276 c 1
 336.069335938 276 295.0703125 276 312.131835938 281 c 0
284.37890625 221 m 0
 265.37890625 221 283.954101562 219 261.954101562 219 c 1
 246.648437499 147 240.548828124 123 233.258789062 84 c 0
 231.76953125 77 232.344726562 75 237.344726562 75 c 0
 245.344726562 75 263.83203125 82 295.83203125 82 c 3
 303.83203125 82 310.021484374 97 323.838867187 162 c 0
 322.987304687 158 415.37890625 221 284.37890625 221 c 0
EndSplineSet
EndChar
StartChar: d.pcap
Encoding: 57350 57350 646
Width: 598
Flags: HW
LayerCount: 2
Back
SplineSet
107.84454725 420.837813049 m 1
 90.5676967882 417.62368421 70.1623613538 418.168273449 61.9806122122 419.136871715 c 2
 55.0325137524 419.926157847 l 1
 58.4730707422 499.60423487 l 1
 66.3242149263 498.870117188 l 2
 104.531973086 495.279453745 116.102523769 492.395507812 151.323242188 492.395507812 c 0
 211.111038681 492.395507812 241.160711078 502.685546875 300.047851562 502.685546875 c 0
 381.389541561 502.685546875 578.974609375 452.866610063 578.974609375 248.606445312 c 0
 578.974609375 50.6039450224 418.23925763 -0.2412109375 284.470703125 -0.2412109375 c 0
 235.589582905 -0.2412109375 210.250111376 4.904296875 157.5 4.904296875 c 0
 146.236854293 4.904296875 112.440682034 2.2684895631 70.2117093503 -5.541015625 c 2
 61.9726208252 -7.04686262523 l 1
 56.2866697756 73.4819581435 l 1
 63.7673920691 74.0114011425 l 2
 87.5305415077 75.7022695715 102.436496239 77.4462060731 111.520130319 77.4914284222 c 1
 111.444184 101.126506144 111.415039062 132.293789316 111.415039062 161.783203125 c 0
 111.415039062 264.383557696 109.511985394 364.539478359 107.84454725 420.837813049 c 1
224.805105642 77.3490359929 m 1
 247.023355101 78.6109429735 270.819114962 79.6240234375 300.948242188 79.6240234375 c 0
 404.527544743 79.6240234375 483.958984375 137.367656487 483.958984375 236.654296875 c 0
 483.958984375 353.561023597 422.418877495 419.03125 276.745117188 419.03125 c 0
 244.731523617 419.03125 236.996298357 418.623657067 218.690887641 420.780521335 c 1
 218.643398732 426.69707823 l 2
 216.098980058 399.166825808 215.447265625 360.34106966 215.447265625 325.088867188 c 0
 215.447265625 227.703183339 218.029171211 152.569781593 224.805105642 77.3490359929 c 1
EndSplineSet
Fore
SplineSet
302.135742187 78 m 3
 362.127929687 78 418.999999999 162.044921875 433.232421874 229 c 0
 454.504882812 329.083984375 507.465820312 430 308.955078125 430 c 3
 320.076171875 430 323.274414062 439 331.081054688 440 c 0
 323.12109375 440.202148438 316.9609375 434.944335938 315.553710938 428.931640625 c 0
 305.318359376 402.380859375 297.193359375 365.005859375 290.159179688 331.911132812 c 0
 268.559570312 230.287109375 258.998046874 153.170898438 252.649414062 75.3212890625 c 0
 251.693359374 71.2255859375 255.909179688 67.587890625 259.928710938 67.9248046875 c 0
 271.873046875 72.1640625 286.956054687 78 302.135742187 78 c 3
130.510742188 506.129882812 m 1
 170.678710938 501.6640625 180.865234374 498.604492188 220.215820312 498.604492188 c 1
 281.366210937 498.604492188 313.733398438 510.314453125 371.979492188 510.314453125 c 3
 454.070312501 510.314453125 638.653320313 459.033203125 594.942382812 253.393554688 c 0
 551.683593751 49.875 377.658203126 -3.7587890625 241.287109376 -3.7587890625 c 3
 193.485351563 -3.7587890625 174.930664063 1.095703125 122.289062501 1.095703125 c 3
 109.330078125 1.095703125 71.1552734375 -2.2607421875 23.470703125 -10.458984375 c 1
 35.552734375 71.951171875 l 1
 67.228515625 71.0625 79.18359375 73.46484375 79.400390625 74.810546875 c 0
 84.1376953125 98.3720703125 91.1650390625 129.48828125 98.1220703125 162.216796875 c 0
 121.638671875 272.852539062 147.370117188 406.009765625 151.780273438 433.815429688 c 0
 151.821289062 433.291015625 142.447265624 439.415039062 111.756835938 432.958984375 c 1
 130.510742188 506.129882812 l 1
EndSplineSet
EndChar
StartChar: g.pcap
Encoding: 57353 57353 649
Width: 533
Flags: HW
LayerCount: 2
Back
SplineSet
18 237 m 3xec
 18 372 121 508 297 508 c 3xec
 337 508 364.669372856 489.118081123 393 479 c 0
 407 474 398 491 400 494 c 1
 463 500 l 1xdc
 504 389 l 1
 438 368 l 1
 431 369 394 439 296 439 c 3
 197 439 130 373 130 262 c 3
 130 124 220 61 339 61 c 3
 365 61 399.246621114 81.8744368524 388 80 c 0
 384 79.3333333333 388 76.6666666667 388 78 c 0
 388 106.745614035 389 143.410544942 389 191 c 0
 389 193 379 193 372 193 c 0
 352 193 340 194 317 196 c 1
 322 272 l 1
 402 263 471 264 522 271 c 1
 527 200 l 1
 507 201 496.15996801 200.99840048 496 193 c 0
 495 143 494 119.058772732 494 85 c 0
 494 82 499 84 513 79 c 1
 508 24 l 1
 445 13 372 -11 316 -11 c 3
 160 -11 18 83 18 237 c 3xec
EndSplineSet
Fore
SplineSet
2.3642578125 237.29296875 m 0
 31 372.010742188 165.938476562 519.96875 341.607421875 519.96875 c 3
 377.940429688 519.96875 388.596679688 491.210937499 413.91015625 483.111328125 c 0
 428.408203125 478.216796875 427.612304688 491.166992188 430.292968751 493.771484375 c 1
 503.638671874 499.635742188 l 1
 520.728515624 388.608398438 l 1
 438.579101562 364 l 1
 429.65234375 322 457.696289062 437 323.096679688 437 c 3
 266.279296875 437 205.543945312 401.471679688 180.999023438 286 c 0
 149.158203125 136.190429688 196.083007812 77 311.575195312 77 c 3
 321.125 77 294.997070312 82.8681640625 296.701171875 87 c 0
 295.166015625 87.3583984375 296.670898437 88.521484375 294.472656249 78.962890625 c 0
 300.133789062 107.928710938 304.083984375 127.454101562 313.858398437 175.056640625 c 0
 314.354492188 177.448242188 304.735351562 176.612304688 297.447265625 176.588867188 c 0
 277.615234375 176.508789062 311.348632812 175.06640625 288.173828124 174.6484375 c 1
 314.257812501 271.79296875 l 1
 392.436523438 262.935546875 462.016601562 264.096679688 514.273437499 270.997070312 c 1
 501.655273438 184.814453125 l 1
 493.842773437 191.493164062 475.058593749 186.767578125 473.541992188 180.41015625 c 0
 463.361328124 136.546875 457.666992188 115.19921875 451.818359374 85.0361328125 c 0
 453.083984375 90.2138671875 456.589843751 86.8916015625 464.015625001 79.283203125 c 1
 447.436523438 23.5458984375 l 1
 382.275390625 12.75 304.181640625 -11.48828125 248.0625 -11.48828125 c 3
 92.3701171875 -11.48828125 -30.3857421875 83.212890625 2.3642578125 237.29296875 c 0
EndSplineSet
EndChar
StartChar: h.pcap
Encoding: 57354 57354 650
Width: 680
Flags: HW
LayerCount: 2
Back
SplineSet
611.43362774 -6.40301453392 m 0
 579.648068648 -4.26570997656 551.148599744 -2.4306640625 522.66796875 -2.4306640625 c 0
 503.773862604 -2.4306640625 485.250764101 -3.46046493223 464.669677643 -6.61832336843 c 0
 457.036832032 -7.78946882545 l 1
 456.088943444 -0.12569553613 l 0
 453.160143993 23.5539386374 451.485605914 44.6805806719 448.528114237 70.0181725894 c 0
 447.442962578 79.3149459734 l 1
 456.752723586 78.34752701 l 0
 467.127086892 77.2694804536 475.667015479 76.9785958474 478.175645208 77.3131212612 c 1
 480.927937188 132.132248641 479.596863255 167.945155023 478.927004274 218.581053834 c 1
 436.801593677 217.473210577 263.268290734 217.006299778 212.021760063 217.497998536 c 1
 212.132271186 163.593605477 210.213432713 112.078790513 211.461010294 77.3174598661 c 1
 219.964456743 77.1743912493 233.546688944 81.189987921 241.41566899 81.6141289877 c 0
 249.967766408 82.0750903451 l 1
 249.296246526 73.5369455421 l 0
 249.261548082 73.0957667372 243.98185114 2.03240800207 243.335283875 -0.492704855889 c 1024
232.840735099 -5.61364429265 m 0
 204.252962433 -1.96625287125 180.719412782 -0.6611328125 157.766601562 -0.6611328125 c 0
 129.741146245 -0.6611328125 102.55384727 -2.17261307103 71.5267647758 -4.47935795643 c 0
 64.641633134 -4.99124115407 l 1
 63.5628275432 1.82808730482 l 0
 63.5628275432 1.82808730482 56.0853550232 49.100206873 53.2743075165 66.0891888025 c 1024
62.6835295092 80.2791743494 m 0
 75.7013784808 78.7771524254 95.1582120252 76.237586283 105.051792786 74.9737247333 c 1
 107.31957474 159.813929157 105.856445312 251.647851433 105.856445312 339.040039062 c 0
 105.856445312 382.536955407 104.978630683 416.81679825 103.555149865 427.579304384 c 1
 96.7121476008 428.724005127 83.5301327551 429.07172559 65.3458178938 429.13774474 c 0
 57.3750176634 429.166683167 l 1
 62.7244405881 512.01236746 l 1
 71.3077180213 510.05673633 l 2
 101.171659851 503.252475981 131.001469815 499.967773438 161.223632812 499.967773438 c 0
 184.95117072 499.967773438 209.30886276 502.680496972 235.711260753 508.178432966 c 0
 244.114062009 509.928200675 l 1
 249.7285654 430.785805307 l 1
 243.669244244 429.230584983 l 0
 235.371961925 427.100956637 223.823443129 425.606018033 214.855311152 426.073102151 c 1
 214.139870075 395.266206143 210.278481314 348.853903887 209.603003627 295.944705038 c 1
 269.657743213 295.790597937 437.014143125 293.965579949 478.866155695 293.800105024 c 1
 478.826914777 331.337426483 476.42291223 398.728305949 475.267545972 431.407495207 c 1
 466.868233863 429.77761586 462.377313518 430.286840908 451.442564439 430.015971899 c 0
 443.353101997 429.815584616 l 1
 447.475679194 510.379860755 l 1
 455.675010033 509.126814725 l 0
 479.416924758 505.49850498 496.954343924 502.848632812 515.049804688 502.848632812 c 0
 540.025074529 502.848632812 566.237853323 505.822132477 604.216797486 514.182070369 c 0
 611.592321555 515.805573194 l 1
 628.107779321 438.222370383 l 1
 622.672425277 435.70977577 l 0
 613.948491355 431.676973271 596.728317136 432.224899176 585.755711779 432.743380041 c 1
 582.569110304 357.68298302 582.7109375 271.37701693 582.7109375 183.297851562 c 0
 582.7109375 138.688192813 582.794557894 101.950225904 582.665491841 82.6614460127 c 1
 591.724401329 83.1861296839 606.512192175 83.8454435264 621.080018613 83.9840356177 c 0
 629.322555794 84.0624516032 l 1
 628.624418828 75.849159144 l 0
 628.624418828 75.849159144 627.377735324 -3.83750339249 615.820973835 -6.52610835023 c 1024
EndSplineSet
Fore
SplineSet
109.880859374 509 m 1
 147.979492187 502 186.718750001 498 227.542968751 498 c 3
 261.375000001 498 286.84375 501 324.456054688 507 c 1
 313.302734376 431 l 1
 302.674804688 427 293.895507812 427 290.08984375 430 c 1
 284.136718751 402 266.146484375 355 252.756835938 292 c 1
 279.446289062 291 412.68359375 291 434.54296875 291 c 1
 446.462890625 337.666992188 453.645507812 394.978515625 456.452148438 427 c 0
 457.621093751 432.5 457.139648438 437.76953125 449.513671875 432 c 1
 469.030273438 505 l 1
 490.30078125 501 506.677734376 498 524.542968751 498 c 3
 560.943359376 498 605.092773437 502 660.093750001 510 c 1
 659.578124999 437 l 1
 664.364257812 436 622.375976562 436.166015625 622.365234376 436 c 0
 599.251953126 360.198242188 590.593749999 314.759765625 562.588867187 183 c 0
 554.028320312 142.733398438 549.4296875 116.392578125 546.794921876 104 c 0
 546.866210938 104.333007812 578.713867188 95 589.733398438 99 c 1
 589.733398438 99 557.731445312 -9.21484375 558.840820313 -4 c 1
 517.264648438 -2 474.089843749 0 435.689453124 0 c 3
 417.871093749 0 398.993164062 -1 378.840820313 -4 c 1
 382.142578125 27.4189453125 385.768554688 55.0673828125 389.606445312 89 c 1
 373.983398437 83 395.283203125 96.1689453125 395.732421874 99 c 0
 412.110351563 151.264648438 413.583984375 178.275390625 421.940429687 227 c 1
 397.596679688 226 277.87109375 223 242.301757813 224 c 1
 230.612304688 169 219.384765626 135 215.520507812 98 c 0
 213.607421876 89 241.182617188 87 241.245117188 92 c 1
 241.245117188 92 213.776367188 -9 214.626953124 -5 c 1
 174.325195312 -1 151.113281249 0 118.689453124 0 c 3
 81.5927734375 0 44.0712890625 -2 2.8408203125 -4 c 1
 2.8408203125 -4 9.0576171875 77 9.8193359375 90 c 1
 1.3330078125 83 62.8505859375 104.258789062 61.3076171875 97 c 0
 85.587890625 183 95.6162109375 249 114.746093751 339 c 0
 124.952148438 387.01953125 131.655273438 427.958007812 129.152343749 435 c 0
 127.979492188 438.893554688 114.427734375 441 89.5146484375 432 c 1
 109.880859374 509 l 1
EndSplineSet
EndChar
StartChar: p.pcap
Encoding: 57362 57362 658
Width: 523
Flags: HW
LayerCount: 2
Back
SplineSet
197.968805957 419.325937617 m 1
 199.254414385 370.678763919 203.141220831 273.685514817 202.57029177 199.014834117 c 1
 213.373602277 197.368346919 223.929137254 197.869140625 236.5234375 197.869140625 c 0
 329.642490227 197.869140625 378.158203125 260.903742538 378.158203125 316.823242188 c 0
 378.158203125 353.514276999 345.420953379 394.92490107 311.057020667 411.657838802 c 1
 301.068984021 417.041252177 271.932452367 423.494177497 263.860659205 424.213597542 c 1
 263.893566161 424.561230108 197.968805957 419.325937617 197.968805957 419.325937617 c 1
208.049056779 60.6602606131 m 1
 208.104715464 45.3933244737 l 1
 195.083126324 59.115234375 l 0
 194.394772225 57.6762409539 208.049056779 60.6602606131 208.049056779 60.6602606131 c 1
112.175905604 64.9233254311 m 2
 112.326027353 63.4088179641 112.059934035 62.1365553849 112.022607182 61.9424177444 c 1
 104.08041512 62.5953376572 l 0
 112.175905604 64.9233254311 l 2
97.0533297394 76.8900868224 m 1
 96.9999224047 85.7688875687 96.9716796875 94.7051279494 96.9716796875 109.817382812 c 0
 96.9716796875 224.384571286 96.1239767471 373.441878397 93.6945680318 421.86659224 c 1
 85.742096672 419.94728925 77.9610332778 419.198313029 63.5243747248 418.83810297 c 0
 55.3227476124 418.645867569 l 1
 60.6702414884 499.444205554 l 1
 68.7032601781 498.268554688 l 2
 93.1984274003 494.626085228 96.6755222314 493.264648438 127.049804688 493.264648438 c 0
 182.775020971 493.264648438 200.542430917 501.349609375 256.053710938 501.349609375 c 0
 380.951676071 501.349609375 476.74609375 419.332513059 476.74609375 319.513671875 c 0
 476.74609375 248.880046374 421.298698047 120.84375 228.76171875 120.84375 c 0
 223.309997885 120.84375 210.750896233 122.994165397 204.895259268 124.059109919 c 1
 205.494514471 103.752792249 206.999348736 87.6290844824 207.695472105 76.1592693594 c 1
 224.161299914 82.4949713842 250.028695306 91.3461721869 264.665291388 74.6602196227 c 0
 269.016768089 72.2986630494 l 1
 261.66314468 -5.65586048917 l 1
 252.876022538 -2.9921875 l 0
 224.352099446 6.0310231375 202.863327348 4.734375 179.763671875 4.734375 c 0
 154.162189877 4.734375 130.222023856 7.71303451076 91.7586942419 -6.5302734375 c 0
 84.4953151325 -9.11623334442 l 1
 59.6247426864 67.3696202188 l 1
 66.5392923876 69.7968614475 l 0
 80.2361047375 74.9100549215 90.1198443753 76.8682718501 97.0533297394 76.8900868224 c 1
EndSplineSet
Fore
SplineSet
245.178710937 230 m 1
 296.695312499 230 349.197265625 277.13671875 360.0078125 328 c 0
 367.95703125 365.395507812 337.886718751 398 322.650390624 411 c 0
 322.726562499 413.743164062 298.083984376 420 315.990234374 422 c 1
 295.965820312 424 268.962890626 426.135742188 268.626953125 425 c 0
 260.63671875 382.24609375 251.6875 307.671875 236.029296875 234 c 1
 238.109374999 229 241.749999999 230 245.178710937 230 c 1
120.20703125 503 m 1
 146.356445312 499 151.142578126 498 185.142578126 498 c 3
 242.142578126 498 261.844726562 506 315.844726562 506 c 3
 441.844726562 506 520.752929688 435 499.283203126 334 c 0
 485.041992188 267 407.599609375 152 213.599609375 152 c 1
 215.33203125 152 220.426757812 151 221.174804688 150 c 1
 217.315429688 131.841796875 213.799804687 96.48828125 216.420898438 90 c 0
 218.831054687 82.517578125 249.130859375 83.93359375 264.657226563 77 c 1
 240.802734375 -7 l 1
 208.653320312 -3 185.291015625 0 160.291015625 0 c 3
 126.41796875 0 75.8095703125 -2 19.951171875 -11 c 1
 28.9580078125 69 l 1
 39.6572265625 77 48.4248046875 77.9921875 50.5712890625 86 c 0
 51.6865234375 95.955078125 53.197265625 103.06640625 56.37109375 118 c 0
 81.8095703125 237.668945312 115.598632812 396.641601562 117.83984375 426 c 0
 117.698242188 425.333007812 115.612304688 427.599609375 98.4150390625 424 c 1
 120.20703125 503 l 1
EndSplineSet
EndChar
StartChar: r.pcap
Encoding: 57364 57364 660
Width: 597
Flags: HW
LayerCount: 2
Back
SplineSet
209.840820312 230.0625 m 1
 222.735351562 224.327148438 240.255859375 222.154296875 255.8515625 222.154296875 c 3
 336.595703125 222.154296875 363.142578125 264.052734375 363.142578125 333.177734375 c 3
 363.142578125 396.26171875 305.887695312 442.828125 266.024414062 442.828125 c 3
 235.27734375 442.828125 211.985947654 437.893553793 212 432 c 0
 212.024414062 421.760742188 210.997070312 284.000976562 209.840820312 230.0625 c 1
69.3681640625 498.584960938 m 1
 101.07421875 497.849609375 127.55078125 497.115234375 153.5546875 497.115234375 c 1
 193.619140625 497.115234375 211.130859375 508.033203125 259.4921875 508.033203125 c 1
 354.171875 508.033203125 461.60546875 444.421875 461.60546875 342.408203125 c 3
 461.60546875 268.060546875 416.038085938 207.658203125 383 189 c 1
 462.13671875 68.3310546875 497.990234375 59.255859375 569.2421875 56.0234375 c 1
 550.842773438 -20.28515625 l 1
 431.295018333 -14.1211956432 348.138900978 76.4913302789 298.259765625 158.177734375 c 1
 283.819657195 157.020479765 277.101766348 156.315429688 263.004882812 156.315429688 c 1
 239.170898438 156.315429688 225.794921875 158.473632812 209.840820312 158.958984375 c 1
 208.530273438 125.4609375 209.984940079 83.1902615649 206.556640625 65.5556640625 c 0
 206.396072072 64.7297263528 224.504882812 64.5625 253.7421875 65.3642578125 c 1
 241.670898438 -9.15234375 l 1
 219.166015625 -1.943359375 188.139648438 1.71875 162.985351562 1.71875 c 3
 139.326171875 1.71875 107.78125 -1.916015625 82.6123046875 -9.302734375 c 1
 69.212890625 65.0732421875 l 1
 110.501953125 62.8759765625 111.793945312 79.7412109375 111.118164062 65.0029296875 c 1
 114.142578125 139.473632812 114.981445312 187.008789062 114.981445312 240.99609375 c 3
 114.981445312 303.80859375 113.708007812 349.09765625 112.788085938 428.146484375 c 1
 112.7890625 430.727539062 103.201171875 433.806640625 69.3681640625 435.276367188 c 1
 69.3681640625 498.584960938 l 1
125.698151299 74.0623466895 m 2
 125.676860197 73.4683947471 125.645674107 72.8396360138 125.610292413 72.1524009106 c 1
 118.616848638 72.4547402381 l 0
 125.698151299 74.0623466895 l 2
EndSplineSet
Fore
SplineSet
241.036132812 271.9375 m 1
 240.624023438 262.600585938 228.732421875 264 244.189453125 264 c 3
 272.357421875 264 303.291015624 245.659179688 323.556640626 341 c 0
 336.677734375 402.734375 301.623046876 436 305.750000001 436 c 3
 268.849609376 436 278.575195312 435.114257812 278.325195312 434 c 0
 276.48046875 425.385742188 251.036132812 312.495117188 241.036132812 271.9375 c 1
115.286132812 501.415039062 m 1
 147.310546875 500.150390625 174.564453125 498.884765625 200.560546875 498.884765625 c 1
 240.49609375 498.884765625 259.341796876 509.966796875 306.980468751 509.966796875 c 1
 397.453125001 509.966796875 489.341796875 451.048828125 469.690429688 358.591796875 c 0
 455.9296875 293.8515625 390.554687501 230.47265625 365.411132812 218 c 1
 428.473632812 59.39453125 443.9296875 79.1083984375 525.865234376 79 c 1
 482.040039062 -19.71484375 l 1
 346.819335937 -12.7783203125 271.966796874 88.6123046875 235.822265625 187 c 1
 230.77734375 187.241210938 230.970703125 187.684570312 226.962890625 187.684570312 c 1
 225.590820312 187.684570312 225.568359376 189.090820312 222.777343751 186.041015625 c 1
 211.767578124 142.06640625 200.020507813 103.250976562 194.654296874 78 c 0
 195.643554688 82.658203125 210.891601562 65 215.140625 85 c 1
 184.5234375 -8.84765625 l 1
 162.470703126 -2.056640625 127.570312501 -1.71875 102.724609376 -1.71875 c 3
 78.3837890625 -1.71875 43.849609375 -2.083984375 17.6142578125 -8.697265625 c 1
 23.9287109375 84 l 1
 36.6533203125 78 61.32421875 90.0029296875 59.50390625 82 c 1
 81.109375 155.529296875 88.839843749 186.991210938 100.319335938 241.00390625 c 0
 113.751953126 304.19140625 119.194335938 344 133.560546875 421 c 1
 134.287109376 424.418945312 115.048828125 428 100.045898437 429.723632812 c 1
 115.286132812 501.415039062 l 1
EndSplineSet
EndChar
StartChar: eogonek.pcap
Encoding: 57415 57415 1661
Width: 526
UnlinkRmOvrlpSave: 1
Flags: HMW
AnchorPoint: "Top" 357.39 537 basechar 0
LayerCount: 2
Fore
SplineSet
154.950195312 502 m 1
 199.525390625 500 284.100585938 498 363.100585938 498 c 0
 425.100585938 498 483.3125 499 505.375976562 504 c 1
 525.1875 489 530.274414062 480 527.723632812 468 c 0
 524.110351562 451 502.858398438 431 493.506835938 387 c 1
 427.65625 383 l 1
 428.33203125 405 439.37109375 424 434.37109375 424 c 0
 400.583984375 425 354.583984375 425 315.583984375 425 c 0
 301.583984375 425 287.583984375 425 275.795898438 426 c 0
 273.795898438 426 272.37109375 424 271.946289062 422 c 0
 263.59375 378 253.965820312 328 244.038085938 286 c 1
 267.462890625 288 371.825195312 285 371.825195312 285 c 2
 379.400390625 283 378.526367188 293 390.264648438 320 c 1
 458.71484375 308 l 1
 445.975585938 281 437.086914062 258 431.772460938 233 c 0
 429.221679688 221 428.458984375 208 429.845703125 191 c 1
 359.01953125 173 l 1
 357.483398438 194 362.946289062 215 351.946289062 215 c 0
 333.946289062 215 249.946289062 215 226.946289062 215 c 1
 214.618164062 157 207.604492188 124 199.314453125 85 c 0
 198.676757812 82 201.676757812 82 201.676757812 82 c 1
 225.889648438 83 250.1015625 84 273.1015625 84 c 0
 300.1015625 84 326.314453125 85 348.314453125 85 c 0
 368.314453125 85 375.952148438 88 407.329101562 118 c 1
 460.352539062 104 l 1
 442.92578125 54.9658203125 418.435546875 15 382.208007812 0.1005859375 c 1
 318.358398438 -28.181640625 303.680664062 -54.4169921875 301.005859375 -67 c 0
 296.352539062 -88.892578125 306.91015625 -101.872070312 323.759765625 -101.872070312 c 0
 332.734375 -101.872070312 344.256835938 -98.3564453125 356.961914062 -90.599609375 c 1
 356.961914062 -90.599609375 371.90234375 -118.88671875 372.276367188 -141 c 1
 346.536132812 -166.004882812 309.78515625 -177 278.395507812 -177 c 0
 235.849609375 -177 204.2421875 -148.506835938 214.375 -100.834960938 c 0
 221.442382812 -67.5888671875 242.413085938 -30.9609375 280.064453125 0.8017578125 c 1
 261.1875 0.9189453125 242.291992188 1 223.459960938 1 c 0
 163.459960938 1 104.822265625 -2 54.6962890625 -12 c 1
 59.5751953125 58 l 1
 83.275390625 66 96.1259765625 70 98.1259765625 70 c 1
 104.077148438 98 120.294921875 179 139.424804688 269 c 0
 157.067382812 352 170.245117188 414 170.8828125 417 c 0
 171.946289062 422 172.795898438 426 135.37109375 424 c 1
 154.950195312 502 l 1
EndSplineSet
EndChar
StartChar: gha.pcap
Encoding: 57468 57468 1733
Width: 604
UnlinkRmOvrlpSave: 1
Flags: HW
LayerCount: 2
Fore
SplineSet
389 382 m 1
 436.557324932 386.541015625 479.528149236 391.837890625 528 410 c 1
 548 394 l 1
 531.261151596 347.84135743 526 214.200613147 526 175 c 3
 526 104.559570312 526.117400223 11.6194983259 535 -55 c 0
 537.538697464 -73.4802241831 570.842267676 -77.4520248548 588 -79 c 1
 584 -109 l 1
 558.416015625 -104.63671875 520.551757812 -101 493 -101 c 3
 463 -101 427 -108 397 -112 c 1
 394 -83 l 1
 437.916525384 -79.0075886014 459.433171982 -77.5248154491 462 -33 c 0
 464 20.373046875 465 99.4921875 465 155 c 3
 465 182.84035773 465.390361926 241.192761474 461 329 c 0
 459.826086957 345 453.956521739 358 434 358 c 3
 425.999511719 358 405.999511719 354 394 353 c 1
 389 382 l 1
260 381 m 3
 192.323242188 381 132.180664062 322.274345127 132.180664062 223.540039062 c 3
 132.180664062 116.092080422 202.826171875 17 289 17 c 3
 308.265609759 17 323.313624648 21.87890625 332.247070312 27.3681640625 c 1
 337.659179688 36.9170846911 341.010742188 150.738869924 341.010742188 208.404296875 c 3
 341.010742188 262.021610774 335.073242188 346.153376924 322.110351562 367.356445312 c 1
 304.341510144 375.458007812 284.928741433 381 260 381 c 3
283.436523438 416 m 3
 326.863337068 416 366.5443967 402.477539062 397.170898438 380.124023438 c 1
 395.158203125 322.65625 388.18359375 265.188476562 388.18359375 207.721679688 c 3
 388.18359375 145.791015625 395.610351562 83.8593749996 398.357421875 21.9287109375 c 1
 366.222525086 -0.5986328125 324.170185636 -14.1611328125 276.623046875 -14.1611328125 c 3
 154.625 -14.1611328125 56 68.9960937498 56 192.034179688 c 3
 56 333.604492188 173.380859375 416 283.436523438 416 c 3
EndSplineSet
EndChar
StartChar: uni01BF.pcap
Encoding: 57499 57499 1801
Width: 467
UnlinkRmOvrlpSave: 1
Flags: HW
AnchorPoint: "Top" 282 465 basechar 0
AnchorPoint: "Bottom" 317 -15 basechar 0
LayerCount: 2
Fore
SplineSet
189 -56 m 0
 190.9375 -71 209.400290556 -74.5244558904 220 -76 c 0
 227.18359375 -77 235.713867188 -79 242 -80 c 1
 241 -103 l 1
 211.75 -102 188.5 -100 157 -100 c 3
 133.388474368 -100 95.611525632 -105 72 -109 c 1
 69 -86 l 1
 76.3330078125 -85 81.6931936478 -83.5666064433 89 -81 c 0
 105.322265625 -75.2666015625 106.022773038 -64.1430790383 111 -38 c 0
 116 -11.7373046875 120 34.7275390625 120 112 c 3
 120 198.610351562 114.60306233 283.504196651 112 298 c 0
 109.424242424 329.263157895 102.212121212 342 95 342 c 3
 86.1904761905 342 65.9285714286 331 58 331 c 1
 52 357 l 1
 82.1988620924 363.60546875 128.720643682 387.197265625 163 424 c 1
 175 417.260742188 182 419.913085938 182 331 c 1
 184.0625 336.517578125 302.65625 410.080078125 314 411 c 1
 352.9453125 411 416 334.126953125 416 260 c 3
 416 193.715820312 225.572420634 65.4072265625 160 38 c 1
 149.432617188 59 l 1
 207.932617188 81.634765625 347 187.9453125 347 230 c 3
 347 294.295898438 303.412109375 345 269 345 c 3
 250.12195122 345 183 315.467773438 183 287 c 0
 183 242.099609375 183 200.399414062 183 145 c 3
 183 91.90625 184.811562041 -23.5733835462 189 -56 c 0
EndSplineSet
EndChar
StartChar: delta.pcap
Encoding: 57529 57529 1834
Width: 485
Flags: HW
AnchorPoint: "Bottom" 234 -15 basechar 0
AnchorPoint: "Top" 254 537 basechar 0
LayerCount: 2
Fore
SplineSet
285.659179688 45.7548828125 m 1
 324.258789062 45.88671875 337.6640625 45.7548828125 338.96484375 49.2783203125 c 1
 308.944335938 117.141601562 253.139648438 232.26953125 228 292 c 1
 216.70703125 273.500976562 133.256835938 116.30078125 107.731445312 55.1494140625 c 1
 113.859375 48.103515625 117.209960938 44.8681640625 173.290039062 45.7548828125 c 1
 285.659179688 45.7548828125 l 1
30 -5 m 1
 35.5263671875 13.9658203125 52.3955078125 32.375 59.2529296875 44.9091796875 c 0
 126.391601562 167.627929688 180.909179688 273.905273438 229.573242188 373.723632812 c 0
 240.276367188 395.677734375 237.375 396.623046875 239.973632812 416 c 1
 267.927734375 416 l 1
 271.177734375 400.146484375 267.797851562 397.754882812 277.028320312 374.8984375 c 0
 330.381835938 242.78515625 362.102539062 162.928710938 435.646484375 34.33984375 c 0
 449.204101562 10.634765625 450.923828125 16.607421875 461 -4.4130859375 c 1
 441.037593984 -1.91692038309 351.647565449 -0.730825054086 259.152985931 -0.730825054086 c 0
 155.807868773 -0.730825054086 48.5870872891 -2.21152463898 30 -5 c 1
EndSplineSet
EndChar
StartChar: psi.pcap
Encoding: 57537 57537 1842
Width: 518
Flags: HW
LayerCount: 2
Fore
SplineSet
190.454101562 409 m 1
 214.740110334 402.856445312 238.272537859 400.120117188 262.208007812 400.120117188 c 0
 285.895891351 400.120117188 309.964480173 402.607421875 335.454101562 407 c 1
 336.36328125 379 l 1
 316.854453125 378 302.653310169 384.24065173 299.36328125 349 c 0
 295.606827471 308.763308278 292.118359259 259.648410435 291.812716103 193.522816886 c 1
 377.119930411 232.39958595 342.54485664 411.395507813 435.0859375 411.395507812 c 0
 466.574817003 411.395507812 479.340723522 393.46089814 487 373.28515625 c 1
 389.854701491 319.558416959 407.72427367 192.000041 291.788026507 168.674198519 c 1
 291.806746512 137.780839017 292.150328611 103.372664324 296 65 c 0
 298.909375 36 328 21 360 20 c 1
 359.090820312 -6 l 1
 331.588728636 -2.6171875 296.774819513 -0.869140625 262.57421875 -0.869140625 c 0
 226.034569077 -0.869140625 190.193395166 -2.8662109375 164.727539062 -7 c 1
 162 19 l 1
 194.880191473 20 225.372333411 31.9534315877 228.727539062 69 c 0
 231.30328811 97.4401831617 232.852276838 132.594660137 233.415681803 169.021720266 c 1
 118.604136416 193.753844707 136.074970956 319.825405254 39 372.694335938 c 1
 46.9543516897 392.868227181 60.2120673987 410.8046875 92.9140625 410.8046875 c 0
 184.877923738 410.8046875 151.202816803 235.553078543 233.650022411 194.804539113 c 1
 233.810114979 251.810214073 235.914739815 312.476209872 229.909179688 348 c 0
 224.668399825 379 206.979800141 377 188.63671875 381 c 1
 190.454101562 409 l 1
EndSplineSet
EndChar
StartChar: w.smcp
Encoding: 57693 57693 2045
Width: 854
Flags: HW
LayerCount: 2
Fore
SplineSet
901.621582031 561.2 m 1
 899.485742189 499.4 l 1
 849.611816407 476 849.482714845 481.9 817.679003906 441.2 c 1
 688.456835938 244.3171875 644.040039062 175.827441406 563.472851563 38.4 c 0
 548.726269531 12.5584960937 545.647070312 8.07548828125 535.562597656 -8.1 c 1
 460.944726563 -9 l 1
 464.769433594 18 464.373242188 21.4036132812 462.965527343 56.2 c 0
 460.843945312 137.8 449.584082031 211.6 447.169238281 292.6 c 1
 357.268945313 173.4 261.707617187 35.0438476563 258.312304687 29 c 0
 250.984277344 15.6044921875 248.992382812 9.18623046875 239.85078125 -8.7 c 1
 172.65078125 -8.7 l 1
 171.610742187 23.3 172.148535156 29.2622070312 165.649902344 96.2 c 0
 147.061914062 246.7 124.800390625 419.749609375 123.325976563 445.6 c 0
 122.812207031 453.524609375 115.047753906 473.78515625 106.759375 478.7 c 0
 92.6918945312 486.7 85.7833007813 488.1 66.87265625 490.4 c 1
 91.598046875 562.5 l 1
 115.854882812 554.3 148.038769531 551.4 182.538769531 551.4 c 3
 216.038769531 551.4 255.756152343 557.6 276.521582031 561.2 c 1
 274.438476562 489.3 l 1
 245.1671875 485.2 237.590722656 481.6 232.923925781 476.9 c 1
 230.5375 474.251367188 229.460839844 469.09140625 229.4484375 461 c 1
 228.919433594 437.858691406 263.434375 169.941308594 266.925195313 141.9 c 1
 279.784179688 160.476367187 429.486523437 356.985742188 436.550488282 369.5 c 1
 432.681738281 449.203027344 427.309570312 474.037988281 422.433691406 481.4 c 1
 418.890039062 485.400097656 405.766113281 486.9 390.338476562 487.8 c 1
 409.117382813 559.3 l 1
 425.291015625 554 463.238769531 551.4 491.838769531 551.4 c 3
 525.638769531 551.4 560.991015625 554 585.496484375 559.2 c 1
 581.423632813 489.7 l 1
 566.747167969 488.4 558.159082032 487.161230469 551.394628906 485.8 c 0
 544.190722657 483.9 541.376074219 479.3 540.906835937 474.3 c 1
 540.720605468 451.044726562 560.117578125 175.550488281 561.093261719 149.8 c 1
 627.716308594 256.73984375 701.551269531 373.449414063 747.959863281 462.3 c 0
 759.904296875 482.5 733.889257812 480.6 700.198828125 487.7 c 1
 718.353515625 559 l 1
 735.091015625 554 769.00234375 551.7 796.90234375 551.7 c 3
 830.10234375 551.7 864.505859376 553.6 901.621582031 561.2 c 1
EndSplineSet
EndChar
StartChar: y.smcp
Encoding: 57695 57695 2047
Width: 580
Flags: HW
LayerCount: 2
Fore
SplineSet
267.318164062 486.4 m 1
 251.033007812 486 245.825292969 482.2 241.527246094 480.8 c 0
 239.929882813 479.4 236.831152343 474.7 236.918261719 473.7 c 1
 259.122265625 392.8 301.861132813 329 321.099511719 290.6 c 1
 353.520214844 332.1 469.171972656 471.6 470.848632812 472.9 c 1
 474.213769531 476.5 477.853027344 482.8 473.764941406 483.8 c 0
 469.577832031 484.8 459.98046875 483.4 445.693945312 487.7 c 1
 466.443554688 558.5 l 1
 482.329101562 554.2 514.397460938 551.7 543.097460938 551.7 c 3
 564.397460938 551.7 596.414550782 554.6 613.853515625 560.9 c 1
 605.451660157 487.5 l 1
 581.002636718 486.8 570.559082031 483.3 564.18359375 477.3 c 1
 492.822460938 413.5 410.2546875 312.5 353.797753906 225.2 c 1
 346.802929688 193.7 337.381640625 160.2 325.157324219 75.4 c 0
 324.438867188 69.2 366.954785156 64.1 401.966113281 61.8 c 1
 378.957128906 -7.4 l 1
 336.73515625 -2.8 292.230566406 0 252.330566406 0 c 3
 215.730566406 0 173.632519531 -1.4 132.691992188 -11 c 1
 131.628417969 58.8 l 1
 187.54609375 65 220.034375 72 218.990917969 76.5 c 1
 219.777636719 80.2 243.260253906 201.5 245.046972656 205.2 c 1
 229.061328125 238.2 181.320605469 360.8 114.7109375 469.9 c 1
 112.43125 474.7 97.7172851561 478.4 75.6053710937 485.4 c 1
 96.8260742187 560.3 l 1
 121.824511719 557 162.061328125 552 193.461328125 552 c 3
 221.461328125 552 255.586816407 554 274.513183594 559.3 c 1
 267.318164062 486.4 l 1
EndSplineSet
EndChar
StartChar: gamma.smcp
Encoding: 57852 57852 2204
Width: 436
Flags: HW
LayerCount: 2
Fore
SplineSet
255.634765625 -10.4658203125 m 1
 216.926940058 -0.65045900386 185.233258577 3.99076969492 150.67824777 3.99076969492 c 0
 119.675262114 3.99076969492 86.3692744349 0.253942699031 43.6134765625 -6.837109375 c 1
 36.073046875 19.7505859375 l 1
 71.3194335938 28.056640625 89.32421875 38.666796875 91.5971679688 70.3397460937 c 1
 93.0027539062 92.181796875 93.8559375 157.781167969 93.8559375 226.327203906 c 0
 93.8559375 306.701824219 92.7437695312 393.769160156 90.2494140625 422.795507812 c 0
 88.4974609375 445.871679687 75.4784179687 448.524023437 26.9319335937 458.086132813 c 1
 30.84296875 481.7484375 l 1
 70.2718464376 479.774582348 117.262574182 478.795630456 164.058923803 478.795630456 c 0
 276.922320194 478.795630456 388.383964232 484.479532728 391.540917969 495.148828125 c 1
 407.644865155 486.914549679 412.143865777 478.738836799 412.143865777 461.660706234 c 0
 412.143865777 443.851818221 407.270605193 416.293078608 405.501367188 368.621582031 c 1
 381.839746094 366.398828125 l 1
 374.047851562 389.090625 376.342285156 421.271679688 347.886425781 433.181542969 c 0
 317.463464813 445.309755031 277.316755441 450.898591486 238.207330214 450.898591486 c 0
 219.683058469 450.898591486 201.400584781 449.602859618 184.478808594 447.195703125 c 0
 172.724804688 445.927148438 170.727636719 434.568847656 170.081054688 422.362988281 c 0
 165.756445313 365.791894531 164.513574219 329.657910156 164.513574219 251.657910156 c 1
 164.513574219 206.93515625 166.41796875 129.867089844 173.503613281 73.321875 c 0
 176.87265625 45.3529296875 189.472558594 31.4220703125 260.249121094 31.1151367188 c 1
 255.634765625 -10.4658203125 l 1
EndSplineSet
EndChar
StartChar: upsilon.smcp
Encoding: 57859 57859 2211
Width: 553
Flags: HW
LayerCount: 2
Fore
SplineSet
320.5140625 272.55625 m 0
 314.811164875 243.439789846 313.991718787 210.744702462 314.133776085 178.102933122 c 0
 314.2723564 137.353646174 315.555974957 96.5465925768 317.971875 63.9259765625 c 0
 320.730794187 37.2797566364 335.552170328 28.5060312372 392.514941406 24.5221679688 c 1
 388.099414062 -7.787109375 l 1
 349.355171452 -2.75517578125 313.432194594 0.839013671875 277.321110079 0.839013671875 c 0
 241.210025565 0.839013671875 204.910833393 -2.25517578125 165.414160156 -10.3 c 1
 156.500585938 19.8909179687 l 1
 211.848502642 30.1553477595 232.471289063 39.0228654561 237.771289062 79.702734375 c 0
 239.700639308 94.5860464663 242.447208616 127.673633148 242.49405564 162.999999363 c 0
 242.506514026 208.453220548 241.125472573 257.30503178 237.3859375 273.274609375 c 0
 223.199151025 333.188899996 180.639371297 430.469140625 96.8716796875 430.469140625 c 3
 78.5574300824 430.469140625 60.2431804773 423.318942868 40.1862304687 409.017578125 c 1
 23.1 429.862988281 l 1
 36.4713867187 471.019702385 75.8432617188 503.3 106.299511719 503.3 c 3
 237.355935983 503.3 255.329277589 358.096386719 280.04296875 266.805273437 c 1
 303.619934678 358.096386719 321.303670482 503.3 450.242773437 503.3 c 3
 480.699707031 503.3 519.328613281 471.019702385 532.7 429.862988281 c 1
 515.613769531 409.017578125 l 1
 495.556819523 423.318942868 477.242569918 430.469140625 458.928320312 430.469140625 c 3
 376.412540392 430.469140625 331.986774762 333.588029505 320.5140625 272.55625 c 0
EndSplineSet
EndChar
StartChar: psi.smcp
Encoding: 57861 57861 2213
Width: 579
Flags: HW
LayerCount: 2
Fore
SplineSet
203.517871094 494.8 m 1
 235.218077234 487.769511719 263.240776501 484.684082031 291.770605469 484.684082031 c 0
 320.127123945 484.684082031 348.975136121 487.550195313 382.417871094 492.5 c 1
 383.654296875 460 l 1
 355.598117187 458.7 336.063576274 466.093580727 332.854296875 429.1 c 0
 328.724779229 380.534315795 324.482851481 320.053887304 323.968901272 240.76597182 c 1
 432.583951288 282.979710165 388.281399648 489.576855469 503.46015625 489.576855469 c 1
 536.602371902 489.576855469 550.038506465 472.222628698 558.1 452.699609375 c 1
 442.098291044 389.890891871 464.206991569 240.3000287 323.951618555 214.371938963 c 1
 323.964722558 170.246587312 323.944881989 120.637651777 328.1 65.3 c 0
 330.7365625 33.3 367 24.3 406.2 23 c 1
 405.263574219 -6.9 l 1
 370.559953727 -2.84912313615 329.021588465 -0.644775528729 288.503815871 -0.644775528729 c 0
 246.997026538 -0.644775528729 206.525103352 -2.94823071024 175.909277344 -7.9 c 1
 172.5 22.3 l 1
 214.116134031 23 252.798322812 30.4550290578 255.809277344 71.4 c 0
 258.512301677 111.708128213 259.896593786 162.716262096 260.290977262 214.615204186 c 1
 121.122895491 241.827691295 142.952479669 390.077783678 27.3 451.986035156 c 1
 35.5680461828 471.507759027 49.3484471791 488.86328125 83.33984375 488.86328125 c 1
 198.114546617 488.86328125 154.441971762 285.78715498 260.455015688 241.963177379 c 1
 260.567080486 312.467149851 261.788175121 384.3590599 256.036425781 427.8 c 0
 251.467879877 460.3 226.485860099 458 201.045703125 462.3 c 1
 203.517871094 494.8 l 1
EndSplineSet
EndChar
StartChar: uni1EFB.smcp
Encoding: 57990 57990 2342
Width: 701
Flags: HW
LayerCount: 2
Fore
SplineSet
250.8 1.3 m 0
 98.8 1.3 69.4 -5.6 59.8 -5.6 c 1
 56.2 27.2 l 1
 95.6 33.9 106.1 38 107.8 69.7 c 0
 108.022647669 74.4623627014 109.298785994 131.102894284 109.8 211.1 c 0
 110.5 317.608789063 106.244703723 419.362388573 105.9 423.4 c 0
 103.9 454.9 94.7 456.4 51.6 458.4 c 1
 54.9 493.2 l 1
 93.5256120352 483.445821814 174.359741925 484.572521805 248.521589308 484.572521805 c 1
 320.198113068 484.572521805 402.179161303 484.095470189 445.2 490.9 c 1
 447.8 460.4 l 1
 388.1 451.5 380.85621883 463.465361392 376.4 398.4 c 0
 373.7 358.590039063 372.7 124.899902344 372.7 118.2 c 1
 373.4 69 376.1 41.5 414.3 40.8 c 0
 427.468010753 40.703567277 518.08798003 40.8834724517 527.2 41.1 c 0
 585.3 40.9 622.7 82.6 636.5 129.6 c 1
 663.1 124.7 l 1
 662.4 78.2 653.2 81.4 632.5 -19.6 c 1
 611.2 -9.9 608.038044437 -3.75745303771 576.6 -2.4 c 1
 517.654033292 -1 334.80849291 1.3 250.8 1.3 c 0
244.749 456.0111 m 3
 197.193446412 456.0111 194.078530074 455.992800677 188.2 398.4 c 0
 185.84792796 371.699310573 184.5 122.799902343 184.5 118.2 c 1
 185.234146342 69 193.824390244 41.5 227.5 40.8 c 0
 230.868039851 40.7586220975 252.183993724 40.90137 258.2012 40.90137 c 1
 285.7955 41.5536427273 295.100000001 47.47981 296 69.7 c 0
 296.185169211 74.4645073101 297.498785994 131.102894284 298 211.1 c 0
 298.7 317.608789063 294.444703723 419.362388573 294.1 423.4 c 0
 292.224221702 451.846984411 283.487697835 456.0111 244.749 456.0111 c 3
EndSplineSet
EndChar
StartChar: uni0251.smcp
Encoding: 57991 57991 2343
Width: 575
Flags: HW
LayerCount: 2
Fore
SplineSet
488.449023437 39.7528320313 m 0
 492.805707475 23.6124259712 503.873924417 27.6072396047 505.011621094 27.93203125 c 0
 518.80061344 31.6853145283 545.393633077 39.1918810848 557.212695313 42.9450195312 c 1
 567.860058594 14.929296875 l 1
 513.231313385 -6.89833838076 448.295405365 -32 433.865136719 -32 c 3
 425.583691406 -32 413.432508287 -29.7714325692 412.570410156 -11.9047851562 c 0
 411.387304687 12.9490966022 411.387304687 57.2539328554 411.387304687 61.5763671875 c 1
 366.451302083 33.6795117187 297.005044477 -8.1662109375 215.302929688 -8.1662109375 c 3
 108.541839105 -8.1662109375 27.2 91.2149578538 27.2 184.511816406 c 3
 27.2 350.990281659 175.424639722 491.658398438 351.052441406 491.658398438 c 3
 415.272736898 491.658398438 415.272736898 482.202050781 441.127734375 482.202050781 c 3
 468.337402344 482.202050781 477.801660156 507.025585938 486.083105469 515.3 c 1
 508.560644531 502.297265625 l 1
 506.194726563 495.204785156 501.508621284 475.544318228 497.913574219 464.470703125 c 0
 490.815234375 441.700555098 483.87245471 416.526836516 480.167871094 320.2578125 c 0
 478.984765625 290.445840474 478.984765625 164.043342461 478.984765625 113.959277344 c 3
 478.984765625 89.3580847512 482.542712412 61.6335100654 488.449023437 39.7528320313 c 0
407.272070312 97.0204101564 m 1
 408.918193914 201.538258534 411.387304687 260.613015536 411.387304687 363.994628906 c 3
 411.387304687 372.204362461 406.785951551 393.950187585 399.556835938 403.674804688 c 0
 377.673473479 433.124157428 331.376547081 443.247167969 293.083496094 443.247167969 c 3
 188.802852068 443.247167969 107.544824219 338.013635704 107.544824219 221.702246094 c 3
 107.544824219 134.115578288 166.174502841 45.5555664063 277.90234375 45.5555664063 c 3
 357.807114033 45.5555664063 394.588986829 81.8838105015 407.272070312 97.0204101564 c 1
EndSplineSet
EndChar
StartChar: Circumflex
Encoding: 58020 58020 159
Width: 281
Flags: HMW
AnchorPoint: "Top" 140 699 mark 0
LayerCount: 2
Fore
SplineSet
289.504882812 770.361328125 m 1
 262.096679688 721.85546875 l 1
 141 737.525390625 l 1
 18.9033203125 721.85546875 l 1
 -8.5048828125 770.361328125 l 1
 121.845703125 864.400390625 l 1
 159.154296875 864.400390625 l 1
 289.504882812 770.361328125 l 1
EndSplineSet
EndChar
StartChar: Uni030F
Encoding: 58034 58034 295
Width: 300
Flags: HW
AnchorPoint: "Top" 87 699 mark 0
LayerCount: 2
Fore
SplineSet
210.293945312 738.060546875 m 1
 159.80859375 714.127929688 l 1
 135.716317853 761.103831323 100.7575842 806.051636663 62.9599609375 839.057617188 c 1
 105.231445312 864.108190988 155 881 155 881 c 1
 181.372438399 840.203317581 204.73654215 776.085019884 210.293945312 738.060546875 c 1
34.845703125 740.951171875 m 1
 -10.1943359375 709.995117188 l 1
 -47.0393713117 754.890385318 -91.9698266753 794.210803565 -134.819335938 819.379882812 c 1
 -99.1625291966 849.955999269 -52.8671875 876.579101562 -52.8671875 876.579101562 c 1
 -19.8986345238 841.117020393 18.3689174469 779.837124117 34.845703125 740.951171875 c 1
EndSplineSet
EndChar
StartChar: Uni031B
Encoding: 58038 58038 759
Width: 0
Flags: HW
AnchorPoint: "Horn" -177 595 mark 0
LayerCount: 2
Fore
SplineSet
-109.510742188 659.723632812 m 3
 -109.510742188 678.115234375 -120.65625 695.522460938 -142.583007812 716.538085938 c 1
 -119.670898438 751.263671875 -86.755859375 770.999023438 -55.1142578125 770.999023438 c 3
 -4.951171875 770.999023438 24 730.940429688 24 686.21484375 c 3
 24 608.172851562 -68.78515625 552.999023438 -142.861328125 552.999023438 c 3
 -165.395507812 552.999023438 -182.512695312 555.615234375 -196.313476562 560.475585938 c 1
 -205.43359375 570.598632812 -231.776367188 620.23828125 -236 639.724609375 c 1
 -209.7578125 625.311523438 -174.76953125 611.780273438 -148.47265625 611.780273438 c 3
 -131.775390625 611.780273438 -109.510742188 628.544921875 -109.510742188 659.723632812 c 3
EndSplineSet
EndChar
StartChar: f.alt
Encoding: 58119 58119 1189
Width: 396
VWidth: 1159
UnlinkRmOvrlpSave: 1
Flags: HW
LayerCount: 2
Fore
SplineSet
67.00390625 459.580078124 m 1
 293.852310704 462.204273544 208.228931148 456.551828958 440.407226562 481.240234376 c 1
 427.133789064 402 l 1
 205.624234924 388.774788212 285.182530149 412.379130426 72.8466796875 379.6796875 c 1
 67.00390625 459.580078124 l 1
444.422851562 754 m 3
 456.224817416 754 523.12890625 731.01953125 533.563476562 729 c 1
 534.733398438 695.861328125 462 634.777167728 396 599 c 1
 386.297851562 605.20703125 361.057617188 653.140625 351.0859375 653.140625 c 3
 338.369140625 653.140625 321.689184753 593.520221895 289.966796876 494.0390625 c 0
 286.271688351 482.451231167 184.461399587 7.0002360667 167.015625 -53 c 0
 152.69943387 -102.236842027 135.858398438 -130.634765626 111.708007812 -171 c 1
 88.1904296875 -169.33984375 53.5419921875 -167.6796875 -8.234375 -167.6796875 c 3
 -38.826171875 -167.6796875 -85.4423828125 -172.736328125 -102.923828125 -174 c 1
 -108.741210938 -105.720703124 l 1
 -56.2568359375 -96.493164062 -6.517441748 -75.7442220294 1.3505859375 -60 c 0
 74.3832706017 62.2757108876 140.523639146 480.956384724 142.688476562 492.33984375 c 0
 173.537012765 654.552047473 193.190463948 680.862344143 264.883789062 710.359375 c 0
 311.977529113 734.720703125 368.618613855 754 444.422851562 754 c 3
EndSplineSet
EndChar
StartChar: one.smaller
Encoding: 58359 58359 2447
Width: 261
Flags: HW
LayerCount: 2
Fore
SplineSet
109.541992188 272.82421875 m 1
 121.130859375 271.936523438 137.1328125 271.434570312 154.875976562 271.434570312 c 0
 193.9453125 271.434570312 241.453125 273.868164062 268.856445312 279.969726562 c 9
 258.1171875 223.599609375 l 1
 218.98828125 223.41015625 234.479492188 219.375 223.465820312 210.462890625 c 0
 220.171476125 204.185547504 201.141601562 163.966796875 195.640625 138.087890625 c 0
 189.206054688 107.815429688 188.439453125 68.93359375 188.934570312 63.05859375 c 0
 191.770507812 57.7646484375 201.646484375 57.1015625 225.861328125 56.755859375 c 9
 212.931640625 0 l 1
 187.321289062 2.072265625 157.91796875 3.2119140625 128.025390625 3.2119140625 c 0
 99.8408203125 3.2119140625 71.2216796875 2.19921875 44.93359375 0 c 9
 55.1181640625 56.0625 l 1
 59.712890625 54.970703125 74.5390625 57.666015625 90.1318359385 67.47265625 c 0
 95.2129937515 73.1110582659 109.338867188 82.1025390625 121.239257812 138.087890625 c 0
 133.108398439 193.926757812 128.991210938 203.887695312 126.948242188 209.481445312 c 0
 124.188476563 213.090820312 130.032648093 216.029296875 96.837890625 216.525390625 c 9
 109.541992188 272.82421875 l 1
EndSplineSet
EndChar
StartChar: two.smaller
Encoding: 58360 58360 2448
Width: 319
Flags: HW
LayerCount: 2
Fore
SplineSet
63.251953125 212.2265625 m 1
 95.5673828125 247.806640625 136.887695312 276.796875 190.2578125 276.796875 c 3
 249.481445312 276.796875 286.340889839 236.006568303 275.284179688 185.977539062 c 0
 263.649688417 132.91708917 144.217856597 80.5214583232 149.666015625 81 c 1
 103.779296876 74.59375 216.060478772 83.5964686486 212.609375 86.578125 c 1
 238.850169268 88.9388830157 279.607421876 120.16796875 263.731445312 102.00390625 c 1
 296.565429688 62.560546875 l 1
 296.565429688 62.560546875 238.130055936 17.3653812104 229.975585938 -9.556640625 c 1
 211.668312093 1.251953125 174.441804476 1.3125 130.415039062 1.3125 c 1
 81.6064453125 1.3125 36.083984375 0.2646484375 31.9345703125 -0.41796875 c 1
 27.447265625 64.921875 l 1
 46.7228634296 80.4334700737 143.756966872 100.47628106 156.794921876 167 c 0
 162.12518808 195.944001484 143.628449078 203 131.123046876 203 c 3
 114.3125 203 111.247959704 192.851165771 104.259765625 180 c 1
 63.251953125 212.2265625 l 1
EndSplineSet
EndChar
StartChar: four.tabulartext
Encoding: 58372 58372 676
Width: 533
Flags: HW
LayerCount: 2
Back
SplineSet
270.951171875 74.9599609375 m 1
 270.951171875 168.237847 270.957335754 245.468151204 270.930664062 308.5234375 c 1
 270.930664062 308.5234375 187.917934999 165.364292579 133.889648438 73.408203125 c 1
 173.878377682 74.9599609375 238.869113658 74.9599609375 270.951171875 74.9599609375 c 1
383.108398438 478.17578125 m 1
 356.591749679 422.303406595 352.939690606 332.809190385 351.897460938 180.267578125 c 0
 351.553206263 129.882174037 352.624277934 135.641433589 353.193359375 77.39453125 c 1
 404.966387899 76.643521162 395.461750714 81.417390444 427.87890625 116.48046875 c 1
 427.87890625 116.48046875 469.503169428 99.833466249 473.077148438 97.841796875 c 1
 473.077148438 97.841796875 450.727086522 33.839543882 437.060546875 -8.634765625 c 1
 413.823801085 -0.279416755388 378.177736594 1.98720714851 353.193359375 2.1435546875 c 1
 352.48037571 -66.1352969953 361.699325412 -126.825820557 376.4140625 -149.715820312 c 1
 328.388439432 -157.103068244 333.391025799 -200.095169761 303 -221.099609375 c 1
 303 -221.099609375 234.115168684 -186.959655092 231.409179688 -182.801757812 c 1
 268.622869434 -133.83504627 271.669975905 -76.3050249373 271.952148438 1.044921875 c 1
 37.1222582588 1.044921875 88.8430339795 9.94457029 53.1083984375 -34.75390625 c 1
 53.1083984375 -34.75390625 -5.5537779643 4.04517047 -9.494140625 7.71484375 c 1
 7.09098200684 27.7309900948 293.635812993 445.819032518 317 514 c 1
 383.108398438 478.17578125 l 1
EndSplineSet
Fore
SplineSet
328.76953125 89.919921875 m 1
 345.976003618 164.615772767 367.1514058 242.029401707 364.562499999 292.5234375 c 1
 364.562499999 292.5234375 245.874174891 161.179808368 170.987304687 86.81640625 c 1
 217.21388496 89.919921875 291.901056003 89.919921875 328.76953125 89.919921875 c 1
536.950195313 466.17578125 m 1
 503.79945706 427.932617186 487.019728038 350.950312138 463.998046874 246.267578125 c 0
 447.310765889 172.077102678 449.919983256 180.556986616 431.2890625 94.7890625 c 1
 470.517413505 94.1609470835 499.1953125 114.833984375 522.715820312 127.48046875 c 1
 522.715820312 127.48046875 560.801757812 110.833007813 563.952148438 108.841796875 c 1
 563.952148438 108.841796875 525.576112815 37.0256791011 501.303710938 -10.634765625 c 1
 477.349609374 -2.27929687461 438.359375 -0.0126953125072 410.727539062 0.1435546875 c 1
 405.638474097 -42.9576557895 408.588720293 -81.2665725846 424.098632812 -95.7158203115 c 1
 366.105125625 -104.0349492 361.26909792 -152.446450982 320.511718749 -176.099609375 c 1
 320.511718749 -176.099609375 236.544340368 -139.285687027 234.061523438 -134.801757812 c 1
 257.166431787 -132.729672321 301.296791261 -1.65707640284 306.250976562 -0.955078125 c 1
 42.4316523616 -0.955078125 108.540892889 9.62332408856 53.443359375 -43.5078125 c 1
 53.443359375 -43.5078125 -6.98919022459 1.46128547674 -10.7763671875 5.71484375 c 1
 12.7827954256 25.3762914937 438.539882103 452.046889322 480.202148438 519.017578125 c 1
 536.950195313 466.17578125 l 1
EndSplineSet
Substitution2: "pnum-1" four
Substitution2: "lnum-1" four.tabularlining
Substitution2: "numr-1" four.numerator
Substitution2: "dnom-1" four.denom
EndChar
StartChar: five.tabulartext
Encoding: 58373 58373 677
Width: 533
Flags: HW
LayerCount: 2
Fore
SplineSet
227.015625 499.0390625 m 1
 398.836914062 491.951171878 437.8976856 495.909435808 472.193359375 497.995117188 c 0
 507.191191652 500.877351365 545.014408914 556.352672547 560.469726562 582.239257812 c 1
 560.469726562 582.239257812 604.897460938 548.377929688 602.16015625 549.970703125 c 1
 563.358263128 513.166827578 511.605659607 377.901610624 490.633789063 379.147460938 c 0
 386.151367187 384.584960937 420.514648437 382.317382813 284.72265625 378.568359376 c 1
 284.72265625 378.568359376 272.515688401 317.742112384 270.232421875 308.461914062 c 1
 406.713803886 312.501953124 472.20317329 237.537197434 447.80078125 122.732421875 c 0
 411.139673826 -39.505743616 204.169742492 -158.538331352 30.9228515625 -178.099609375 c 1
 30.9228515625 -178.099609375 46.8205902982 -109.56182691 44.5380859375 -105.411132812 c 1
 23.2657727789 -115.683849914 292.048508917 -110.463597256 335.19921875 88.310546876 c 0
 328.097379697 61.600992099 370.793584835 202.59765625 157.619140624 208.39453125 c 1
 183.561962849 291.376162504 210.034340255 402.517421758 227.015625 499.0390625 c 1
EndSplineSet
Substitution2: "pnum-1" five
Substitution2: "lnum-1" five.tabularlining
Substitution2: "numr-1" five.numerator
Substitution2: "dnom-1" five.denom
EndChar
StartChar: zero.tabularlining
Encoding: 58378 58378 682
Width: 533
Flags: HW
LayerCount: 2
Fore
SplineSet
364.140625 558 m 3
 277.349869718 558 242.844119559 416.353086759 227.263671876 345 c 0
 205.4140625 245.365234376 217.908228962 96 325.7578125 96 c 3
 373.811800822 96 426.50390625 187.7421875 451.5859375 312 c 0
 489.054723322 494.197841665 400.503030726 558 364.140625 558 c 3
404.4375 656 m 3
 568.221679688 656 592.460617314 472.624860482 562.143554688 330 c 0
 531.303710938 184.909179688 419.693359375 -12 274.44921875 -12 c 3
 118.075195312 -12 72.3642975319 147.558585307 112.84375 338 c 0
 133.557617188 435.451171875 234.043945312 656 404.4375 656 c 3
EndSplineSet
Substitution2: "pnum-1" zero.proportionallining
Substitution2: "onum-1" zero.tabulartext
Substitution2: "numr-1" zero.numerator
Substitution2: "dnom-1" zero.denom
Substitution2: "'zero' Slashed Zero lookup 22-1" zero.tabularliningalt
EndChar
StartChar: one.tabularlining
Encoding: 58379 58379 683
Width: 533
Flags: HW
LayerCount: 2
Fore
SplineSet
257.823242188 627.12109375 m 1
 273.926757812 626.19140625 293.459960938 625.76171875 314.829101562 625.76171875 c 0
 401.069335938 625.76171875 517.192382812 632.75390625 558.284179688 642.05078125 c 9
 542.860351562 573.084960938 l 1
 450.733398438 582.317382812 454.073746149 539.381627429 448.783203125 529.62890625 c 0
 431.881910198 479.352919158 414.123046875 406.75390625 396.215820312 322.504882812 c 0
 370.413085938 201.11328125 364.168420195 119.74271732 370.623046875 85.615234375 c 0
 379.63766805 77.1994168361 396.94140625 58.376953125 435.776367188 55.734375 c 9
 420.014648438 -0.65625 l 1
 378.21484375 -0.369140625 331.973632812 -0.2109375 280.1015625 -0.2109375 c 0
 231.209960938 -0.2109375 177.317382812 -0.3515625 117.427734375 -0.65625 c 9
 121.620117188 54.5673828125 l 1
 161.229492188 56.1123046875 202.648872527 86.6318558971 209.28515625 86.8779296875 c 0
 233.912902836 121.051147325 250.399414062 156.333007812 286.720703125 322.504882812 c 0
 314.836914062 451.136718751 313.725585938 460.766601562 319.584960938 523.208984375 c 0
 319.236878618 542.757225058 326.30078125 562.657226562 243.983398438 570.640625 c 9
 257.823242188 627.12109375 l 1
EndSplineSet
Substitution2: "pnum-1" one.proportionallining
Substitution2: "onum-1" one.tabulartext
Substitution2: "numr-1" one.numerator
Substitution2: "dnom-1" one.denom
Substitution2: "salt-1" one.tabularliningalt
EndChar
StartChar: eight.tabularlining
Encoding: 58386 58386 690
Width: 533
UnlinkRmOvrlpSave: 1
Flags: HW
LayerCount: 2
Fore
SplineSet
360.09375 588.271484376 m 3
 341.771916576 588.271484376 325.089883777 589.98336879 316.16015625 542.537109376 c 0
 285.087344693 382.489331673 553.60114172 380.202287219 509.83984375 175.89453125 c 0
 491.151950283 88.7554545919 416.777938685 -12.5263671875 256.3125 -12.5263671875 c 3
 139.774414062 -12.5263671875 76.5003019388 58.8838512778 97.184570313 167.532226562 c 0
 122.94921875 306.6015625 398.98828125 375.357421876 426.134765624 501.869140624 c 0
 438.551206507 559.5296478 381.288483477 588.271484376 360.09375 588.271484376 c 3
394.665039062 660.852539062 m 3
 428.938476562 660.852539062 564.623050024 652.428840332 533.065429688 499 c 0
 502.591796876 351.185546876 260.759765624 361.11328125 229.37109375 206 c 0
 230.99780935 209.150276932 225.875590545 65 340.95703125 65 c 3
 357.437196752 65 372.334919943 92.3732804864 377.06640625 111 c 0
 393.333984376 185.87109375 377.915721839 208.231573433 355.529296876 233 c 0
 260.704083318 330.986567253 174.330272162 391.537837641 190.275390624 471.08203125 c 0
 218.238176291 609.206874112 336.510926637 660.852539062 394.665039062 660.852539062 c 3
EndSplineSet
Substitution2: "dnom-1" eight.denom
Substitution2: "numr-1" eight.numerator
Substitution2: "onum-1" eight.tabulartext
Substitution2: "pnum-1" eight.proportionallining
EndChar
StartChar: one.tabularliningalt
Encoding: 58418 58418 1420
Width: 533
Flags: HW
LayerCount: 2
Back
SplineSet
269 568 m 0xf0
 268 550.142081967 262 413.229655738 262 316 c 27xe8
 262 216.069755102 267 76.16836 269 58 c 0xf0
 278.257 31 321.457 29 377 27 c 9
 376 0 l 1
 324.292193075 3.33409040171 274.62277351 5.16733002019 224.850134471 5.16733002019 c 0
 177.923457823 5.16733002019 130.905028254 3.53774323424 82 0 c 9
 80 26 l 1
 130.178 30 172.753 32 191 62 c 0
 195 78.5656481328 201 120.898489627 201 316 c 3xe8
 201 411.238314137 200.122960603 471.434118917 199.086914062 509.799804688 c 0
 198.551916012 528.800804686 192.499938062 542.799804688 175.5 542.799804688 c 3
 164.929 542.799804688 119.119 525.656804686 101.5 522.799804688 c 1
 93.5 548.799804688 l 1
 152.881 568.991804688 221.397 620.387804687 270.5 682.799804688 c 1
 289.5 666.799804688 l 1
 280.038 640.199857272 270.21 588.924958634 269 568 c 0xf0
EndSplineSet
Fore
SplineSet
433.783203125 545.62890625 m 0
 419.744140625 495.594726562 401.123046875 406.75390625 383.215820312 322.504882812 c 0
 357.413085938 201.11328125 337.411132812 108.911132812 343.623046875 76.615234375 c 0
 346.19140625 63.2626953125 372.94140625 57.376953125 435.776367188 55.734375 c 1
 420.014648438 -0.65625 l 1
 376.9765625 1.5673828125 328.999023438 2.99609375 274.622070312 2.99609375 c 3
 227.375976562 2.99609375 175.296875 1.9169921875 117.427734375 -0.65625 c 1
 121.620117188 54.5673828125 l 1
 161.229492188 56.1123046875 230.920898438 68.7353515625 234.28515625 75.8779296875 c 0
 250.435546875 110.161132812 264.399414062 156.333007812 299.720703125 322.504882812 c 0
 320.5859375 420.670898438 327.541015625 442.015625 331.532226562 489.208984375 c 0
 332.375 499.170898438 329.974609375 509.327148438 313.260742188 509.327148438 c 3
 300.975585938 509.327148438 276.313476562 495.067382812 246.302734375 486 c 1
 231.568359375 539 l 1
 281.962890625 553.951171875 392.393554688 623.213867188 433.17578125 683 c 1
 480.4375 656 l 1
 455.879882812 620.721679688 446.34765625 590.40625 433.783203125 545.62890625 c 0
EndSplineSet
EndChar
